<?xml version="1.0" encoding="utf-8" standalone="no"?>
<!DOCTYPE svg PUBLIC "-//W3C//DTD SVG 1.1//EN"
  "http://www.w3.org/Graphics/SVG/1.1/DTD/svg11.dtd">
<svg xmlns:xlink="http://www.w3.org/1999/xlink" width="1080pt" height="288pt" viewBox="0 0 1080 288" xmlns="http://www.w3.org/2000/svg" version="1.1">
 <metadata>
  <rdf:RDF xmlns:dc="http://purl.org/dc/elements/1.1/" xmlns:cc="http://creativecommons.org/ns#" xmlns:rdf="http://www.w3.org/1999/02/22-rdf-syntax-ns#">
   <cc:Work>
    <dc:type rdf:resource="http://purl.org/dc/dcmitype/StillImage"/>
    <dc:date>2025-08-15T21:34:57.130043</dc:date>
    <dc:format>image/svg+xml</dc:format>
    <dc:creator>
     <cc:Agent>
      <dc:title>Matplotlib v3.7.5, https://matplotlib.org/</dc:title>
     </cc:Agent>
    </dc:creator>
   </cc:Work>
  </rdf:RDF>
 </metadata>
 <defs>
  <style type="text/css">*{stroke-linejoin: round; stroke-linecap: butt}</style>
 </defs>
 <g id="figure_1">
  <g id="patch_1">
   <path d="M 0 288 
L 1080 288 
L 1080 0 
L 0 0 
z
" style="fill: #ffffff"/>
  </g>
  <g id="axes_1">
   <g id="patch_2">
    <path d="M 336.846842 246.04 
L 532.996316 246.04 
L 532.996316 59.568 
L 336.846842 59.568 
z
" style="fill: #ffffff"/>
   </g>
   <g id="patch_3">
    <path d="M 364.868195 246.04 
L 420.910902 246.04 
L 420.910902 230.500667 
L 364.868195 230.500667 
z
" clip-path="url(#pdb8d74d26c)" style="fill: #cccccc; stroke: #000000; stroke-linejoin: miter"/>
   </g>
   <g id="patch_4">
    <path d="M 448.932256 246.04 
L 504.974962 246.04 
L 504.974962 240.860222 
L 448.932256 240.860222 
z
" clip-path="url(#pdb8d74d26c)" style="fill: #cccccc; stroke: #000000; stroke-linejoin: miter"/>
   </g>
   <g id="patch_5">
    <path d="M 364.868195 230.500667 
L 420.910902 230.500667 
L 420.910902 90.646667 
L 364.868195 90.646667 
z
" clip-path="url(#pdb8d74d26c)" style="fill: #c84940; stroke: #000000; stroke-linejoin: miter"/>
   </g>
   <g id="patch_6">
    <path d="M 448.932256 240.860222 
L 504.974962 240.860222 
L 504.974962 90.646667 
L 448.932256 90.646667 
z
" clip-path="url(#pdb8d74d26c)" style="fill: #3784bb; stroke: #000000; stroke-linejoin: miter"/>
   </g>
   <g id="matplotlib.axis_1">
    <g id="xtick_1">
     <g id="line2d_1">
      <defs>
       <path id="mfa6bc80bcc" d="M 0 0 
L 0 3.5 
" style="stroke: #000000; stroke-width: 0.8"/>
      </defs>
      <g>
       <use xlink:href="#mfa6bc80bcc" x="392.889549" y="246.04" style="stroke: #000000; stroke-width: 0.8"/>
      </g>
     </g>
     <g id="text_1">
      <!-- CRC -->
      <g transform="translate(382.056736 260.197812) scale(0.1 -0.1)">
       <defs>
        <path id="ArialMT-43" d="M 3763 1606 
L 4369 1453 
Q 4178 706 3683 314 
Q 3188 -78 2472 -78 
Q 1731 -78 1267 223 
Q 803 525 561 1097 
Q 319 1669 319 2325 
Q 319 3041 592 3573 
Q 866 4106 1370 4382 
Q 1875 4659 2481 4659 
Q 3169 4659 3637 4309 
Q 4106 3959 4291 3325 
L 3694 3184 
Q 3534 3684 3231 3912 
Q 2928 4141 2469 4141 
Q 1941 4141 1586 3887 
Q 1231 3634 1087 3207 
Q 944 2781 944 2328 
Q 944 1744 1114 1308 
Q 1284 872 1643 656 
Q 2003 441 2422 441 
Q 2931 441 3284 734 
Q 3638 1028 3763 1606 
z
" transform="scale(0.015625)"/>
        <path id="ArialMT-52" d="M 503 0 
L 503 4581 
L 2534 4581 
Q 3147 4581 3465 4457 
Q 3784 4334 3975 4021 
Q 4166 3709 4166 3331 
Q 4166 2844 3850 2509 
Q 3534 2175 2875 2084 
Q 3116 1969 3241 1856 
Q 3506 1613 3744 1247 
L 4541 0 
L 3778 0 
L 3172 953 
Q 2906 1366 2734 1584 
Q 2563 1803 2427 1890 
Q 2291 1978 2150 2013 
Q 2047 2034 1813 2034 
L 1109 2034 
L 1109 0 
L 503 0 
z
M 1109 2559 
L 2413 2559 
Q 2828 2559 3062 2645 
Q 3297 2731 3419 2920 
Q 3541 3109 3541 3331 
Q 3541 3656 3305 3865 
Q 3069 4075 2559 4075 
L 1109 4075 
L 1109 2559 
z
" transform="scale(0.015625)"/>
       </defs>
       <use xlink:href="#ArialMT-43"/>
       <use xlink:href="#ArialMT-52" x="72.216797"/>
       <use xlink:href="#ArialMT-43" x="144.433594"/>
      </g>
     </g>
    </g>
    <g id="xtick_2">
     <g id="line2d_2">
      <g>
       <use xlink:href="#mfa6bc80bcc" x="476.953609" y="246.04" style="stroke: #000000; stroke-width: 0.8"/>
      </g>
     </g>
     <g id="text_2">
      <!-- Health -->
      <g transform="translate(462.501265 260.197812) scale(0.1 -0.1)">
       <defs>
        <path id="ArialMT-48" d="M 513 0 
L 513 4581 
L 1119 4581 
L 1119 2700 
L 3500 2700 
L 3500 4581 
L 4106 4581 
L 4106 0 
L 3500 0 
L 3500 2159 
L 1119 2159 
L 1119 0 
L 513 0 
z
" transform="scale(0.015625)"/>
        <path id="ArialMT-65" d="M 2694 1069 
L 3275 997 
Q 3138 488 2766 206 
Q 2394 -75 1816 -75 
Q 1088 -75 661 373 
Q 234 822 234 1631 
Q 234 2469 665 2931 
Q 1097 3394 1784 3394 
Q 2450 3394 2872 2941 
Q 3294 2488 3294 1666 
Q 3294 1616 3291 1516 
L 816 1516 
Q 847 969 1125 678 
Q 1403 388 1819 388 
Q 2128 388 2347 550 
Q 2566 713 2694 1069 
z
M 847 1978 
L 2700 1978 
Q 2663 2397 2488 2606 
Q 2219 2931 1791 2931 
Q 1403 2931 1139 2672 
Q 875 2413 847 1978 
z
" transform="scale(0.015625)"/>
        <path id="ArialMT-61" d="M 2588 409 
Q 2275 144 1986 34 
Q 1697 -75 1366 -75 
Q 819 -75 525 192 
Q 231 459 231 875 
Q 231 1119 342 1320 
Q 453 1522 633 1644 
Q 813 1766 1038 1828 
Q 1203 1872 1538 1913 
Q 2219 1994 2541 2106 
Q 2544 2222 2544 2253 
Q 2544 2597 2384 2738 
Q 2169 2928 1744 2928 
Q 1347 2928 1158 2789 
Q 969 2650 878 2297 
L 328 2372 
Q 403 2725 575 2942 
Q 747 3159 1072 3276 
Q 1397 3394 1825 3394 
Q 2250 3394 2515 3294 
Q 2781 3194 2906 3042 
Q 3031 2891 3081 2659 
Q 3109 2516 3109 2141 
L 3109 1391 
Q 3109 606 3145 398 
Q 3181 191 3288 0 
L 2700 0 
Q 2613 175 2588 409 
z
M 2541 1666 
Q 2234 1541 1622 1453 
Q 1275 1403 1131 1340 
Q 988 1278 909 1158 
Q 831 1038 831 891 
Q 831 666 1001 516 
Q 1172 366 1500 366 
Q 1825 366 2078 508 
Q 2331 650 2450 897 
Q 2541 1088 2541 1459 
L 2541 1666 
z
" transform="scale(0.015625)"/>
        <path id="ArialMT-6c" d="M 409 0 
L 409 4581 
L 972 4581 
L 972 0 
L 409 0 
z
" transform="scale(0.015625)"/>
        <path id="ArialMT-74" d="M 1650 503 
L 1731 6 
Q 1494 -44 1306 -44 
Q 1000 -44 831 53 
Q 663 150 594 308 
Q 525 466 525 972 
L 525 2881 
L 113 2881 
L 113 3319 
L 525 3319 
L 525 4141 
L 1084 4478 
L 1084 3319 
L 1650 3319 
L 1650 2881 
L 1084 2881 
L 1084 941 
Q 1084 700 1114 631 
Q 1144 563 1211 522 
Q 1278 481 1403 481 
Q 1497 481 1650 503 
z
" transform="scale(0.015625)"/>
        <path id="ArialMT-68" d="M 422 0 
L 422 4581 
L 984 4581 
L 984 2938 
Q 1378 3394 1978 3394 
Q 2347 3394 2619 3248 
Q 2891 3103 3008 2847 
Q 3125 2591 3125 2103 
L 3125 0 
L 2563 0 
L 2563 2103 
Q 2563 2525 2380 2717 
Q 2197 2909 1863 2909 
Q 1613 2909 1392 2779 
Q 1172 2650 1078 2428 
Q 984 2206 984 1816 
L 984 0 
L 422 0 
z
" transform="scale(0.015625)"/>
       </defs>
       <use xlink:href="#ArialMT-48"/>
       <use xlink:href="#ArialMT-65" x="72.216797"/>
       <use xlink:href="#ArialMT-61" x="127.832031"/>
       <use xlink:href="#ArialMT-6c" x="183.447266"/>
       <use xlink:href="#ArialMT-74" x="205.664062"/>
       <use xlink:href="#ArialMT-68" x="233.447266"/>
      </g>
     </g>
    </g>
    <g id="text_3">
     <!-- Phenotype -->
     <g transform="translate(411.014548 273.343125) scale(0.1 -0.1)">
      <defs>
       <path id="ArialMT-50" d="M 494 0 
L 494 4581 
L 2222 4581 
Q 2678 4581 2919 4538 
Q 3256 4481 3484 4323 
Q 3713 4166 3852 3881 
Q 3991 3597 3991 3256 
Q 3991 2672 3619 2267 
Q 3247 1863 2275 1863 
L 1100 1863 
L 1100 0 
L 494 0 
z
M 1100 2403 
L 2284 2403 
Q 2872 2403 3119 2622 
Q 3366 2841 3366 3238 
Q 3366 3525 3220 3729 
Q 3075 3934 2838 4000 
Q 2684 4041 2272 4041 
L 1100 4041 
L 1100 2403 
z
" transform="scale(0.015625)"/>
       <path id="ArialMT-6e" d="M 422 0 
L 422 3319 
L 928 3319 
L 928 2847 
Q 1294 3394 1984 3394 
Q 2284 3394 2536 3286 
Q 2788 3178 2913 3003 
Q 3038 2828 3088 2588 
Q 3119 2431 3119 2041 
L 3119 0 
L 2556 0 
L 2556 2019 
Q 2556 2363 2490 2533 
Q 2425 2703 2258 2804 
Q 2091 2906 1866 2906 
Q 1506 2906 1245 2678 
Q 984 2450 984 1813 
L 984 0 
L 422 0 
z
" transform="scale(0.015625)"/>
       <path id="ArialMT-6f" d="M 213 1659 
Q 213 2581 725 3025 
Q 1153 3394 1769 3394 
Q 2453 3394 2887 2945 
Q 3322 2497 3322 1706 
Q 3322 1066 3130 698 
Q 2938 331 2570 128 
Q 2203 -75 1769 -75 
Q 1072 -75 642 372 
Q 213 819 213 1659 
z
M 791 1659 
Q 791 1022 1069 705 
Q 1347 388 1769 388 
Q 2188 388 2466 706 
Q 2744 1025 2744 1678 
Q 2744 2294 2464 2611 
Q 2184 2928 1769 2928 
Q 1347 2928 1069 2612 
Q 791 2297 791 1659 
z
" transform="scale(0.015625)"/>
       <path id="ArialMT-79" d="M 397 -1278 
L 334 -750 
Q 519 -800 656 -800 
Q 844 -800 956 -737 
Q 1069 -675 1141 -563 
Q 1194 -478 1313 -144 
Q 1328 -97 1363 -6 
L 103 3319 
L 709 3319 
L 1400 1397 
Q 1534 1031 1641 628 
Q 1738 1016 1872 1384 
L 2581 3319 
L 3144 3319 
L 1881 -56 
Q 1678 -603 1566 -809 
Q 1416 -1088 1222 -1217 
Q 1028 -1347 759 -1347 
Q 597 -1347 397 -1278 
z
" transform="scale(0.015625)"/>
       <path id="ArialMT-70" d="M 422 -1272 
L 422 3319 
L 934 3319 
L 934 2888 
Q 1116 3141 1344 3267 
Q 1572 3394 1897 3394 
Q 2322 3394 2647 3175 
Q 2972 2956 3137 2557 
Q 3303 2159 3303 1684 
Q 3303 1175 3120 767 
Q 2938 359 2589 142 
Q 2241 -75 1856 -75 
Q 1575 -75 1351 44 
Q 1128 163 984 344 
L 984 -1272 
L 422 -1272 
z
M 931 1641 
Q 931 1000 1190 694 
Q 1450 388 1819 388 
Q 2194 388 2461 705 
Q 2728 1022 2728 1688 
Q 2728 2322 2467 2637 
Q 2206 2953 1844 2953 
Q 1484 2953 1207 2617 
Q 931 2281 931 1641 
z
" transform="scale(0.015625)"/>
      </defs>
      <use xlink:href="#ArialMT-50"/>
      <use xlink:href="#ArialMT-68" x="66.699219"/>
      <use xlink:href="#ArialMT-65" x="122.314453"/>
      <use xlink:href="#ArialMT-6e" x="177.929688"/>
      <use xlink:href="#ArialMT-6f" x="233.544922"/>
      <use xlink:href="#ArialMT-74" x="289.160156"/>
      <use xlink:href="#ArialMT-79" x="316.943359"/>
      <use xlink:href="#ArialMT-70" x="366.943359"/>
      <use xlink:href="#ArialMT-65" x="422.558594"/>
     </g>
    </g>
   </g>
   <g id="matplotlib.axis_2">
    <g id="ytick_1">
     <g id="line2d_3">
      <defs>
       <path id="m00049246f1" d="M 0 0 
L -3.5 0 
" style="stroke: #000000; stroke-width: 0.8"/>
      </defs>
      <g>
       <use xlink:href="#m00049246f1" x="336.846842" y="246.04" style="stroke: #000000; stroke-width: 0.8"/>
      </g>
     </g>
     <g id="text_4">
      <!-- 0.0 -->
      <g transform="translate(315.946842 249.618906) scale(0.1 -0.1)">
       <defs>
        <path id="ArialMT-30" d="M 266 2259 
Q 266 3072 433 3567 
Q 600 4063 929 4331 
Q 1259 4600 1759 4600 
Q 2128 4600 2406 4451 
Q 2684 4303 2865 4023 
Q 3047 3744 3150 3342 
Q 3253 2941 3253 2259 
Q 3253 1453 3087 958 
Q 2922 463 2592 192 
Q 2263 -78 1759 -78 
Q 1097 -78 719 397 
Q 266 969 266 2259 
z
M 844 2259 
Q 844 1131 1108 757 
Q 1372 384 1759 384 
Q 2147 384 2411 759 
Q 2675 1134 2675 2259 
Q 2675 3391 2411 3762 
Q 2147 4134 1753 4134 
Q 1366 4134 1134 3806 
Q 844 3388 844 2259 
z
" transform="scale(0.015625)"/>
        <path id="ArialMT-2e" d="M 581 0 
L 581 641 
L 1222 641 
L 1222 0 
L 581 0 
z
" transform="scale(0.015625)"/>
       </defs>
       <use xlink:href="#ArialMT-30"/>
       <use xlink:href="#ArialMT-2e" x="55.615234"/>
       <use xlink:href="#ArialMT-30" x="83.398438"/>
      </g>
     </g>
    </g>
    <g id="ytick_2">
     <g id="line2d_4">
      <g>
       <use xlink:href="#m00049246f1" x="336.846842" y="214.961333" style="stroke: #000000; stroke-width: 0.8"/>
      </g>
     </g>
     <g id="text_5">
      <!-- 0.2 -->
      <g transform="translate(315.946842 218.54024) scale(0.1 -0.1)">
       <defs>
        <path id="ArialMT-32" d="M 3222 541 
L 3222 0 
L 194 0 
Q 188 203 259 391 
Q 375 700 629 1000 
Q 884 1300 1366 1694 
Q 2113 2306 2375 2664 
Q 2638 3022 2638 3341 
Q 2638 3675 2398 3904 
Q 2159 4134 1775 4134 
Q 1369 4134 1125 3890 
Q 881 3647 878 3216 
L 300 3275 
Q 359 3922 746 4261 
Q 1134 4600 1788 4600 
Q 2447 4600 2831 4234 
Q 3216 3869 3216 3328 
Q 3216 3053 3103 2787 
Q 2991 2522 2730 2228 
Q 2469 1934 1863 1422 
Q 1356 997 1212 845 
Q 1069 694 975 541 
L 3222 541 
z
" transform="scale(0.015625)"/>
       </defs>
       <use xlink:href="#ArialMT-30"/>
       <use xlink:href="#ArialMT-2e" x="55.615234"/>
       <use xlink:href="#ArialMT-32" x="83.398438"/>
      </g>
     </g>
    </g>
    <g id="ytick_3">
     <g id="line2d_5">
      <g>
       <use xlink:href="#m00049246f1" x="336.846842" y="183.882667" style="stroke: #000000; stroke-width: 0.8"/>
      </g>
     </g>
     <g id="text_6">
      <!-- 0.4 -->
      <g transform="translate(315.946842 187.461573) scale(0.1 -0.1)">
       <defs>
        <path id="ArialMT-34" d="M 2069 0 
L 2069 1097 
L 81 1097 
L 81 1613 
L 2172 4581 
L 2631 4581 
L 2631 1613 
L 3250 1613 
L 3250 1097 
L 2631 1097 
L 2631 0 
L 2069 0 
z
M 2069 1613 
L 2069 3678 
L 634 1613 
L 2069 1613 
z
" transform="scale(0.015625)"/>
       </defs>
       <use xlink:href="#ArialMT-30"/>
       <use xlink:href="#ArialMT-2e" x="55.615234"/>
       <use xlink:href="#ArialMT-34" x="83.398438"/>
      </g>
     </g>
    </g>
    <g id="ytick_4">
     <g id="line2d_6">
      <g>
       <use xlink:href="#m00049246f1" x="336.846842" y="152.804" style="stroke: #000000; stroke-width: 0.8"/>
      </g>
     </g>
     <g id="text_7">
      <!-- 0.6 -->
      <g transform="translate(315.946842 156.382906) scale(0.1 -0.1)">
       <defs>
        <path id="ArialMT-36" d="M 3184 3459 
L 2625 3416 
Q 2550 3747 2413 3897 
Q 2184 4138 1850 4138 
Q 1581 4138 1378 3988 
Q 1113 3794 959 3422 
Q 806 3050 800 2363 
Q 1003 2672 1297 2822 
Q 1591 2972 1913 2972 
Q 2475 2972 2870 2558 
Q 3266 2144 3266 1488 
Q 3266 1056 3080 686 
Q 2894 316 2569 119 
Q 2244 -78 1831 -78 
Q 1128 -78 684 439 
Q 241 956 241 2144 
Q 241 3472 731 4075 
Q 1159 4600 1884 4600 
Q 2425 4600 2770 4297 
Q 3116 3994 3184 3459 
z
M 888 1484 
Q 888 1194 1011 928 
Q 1134 663 1356 523 
Q 1578 384 1822 384 
Q 2178 384 2434 671 
Q 2691 959 2691 1453 
Q 2691 1928 2437 2201 
Q 2184 2475 1800 2475 
Q 1419 2475 1153 2201 
Q 888 1928 888 1484 
z
" transform="scale(0.015625)"/>
       </defs>
       <use xlink:href="#ArialMT-30"/>
       <use xlink:href="#ArialMT-2e" x="55.615234"/>
       <use xlink:href="#ArialMT-36" x="83.398438"/>
      </g>
     </g>
    </g>
    <g id="ytick_5">
     <g id="line2d_7">
      <g>
       <use xlink:href="#m00049246f1" x="336.846842" y="121.725333" style="stroke: #000000; stroke-width: 0.8"/>
      </g>
     </g>
     <g id="text_8">
      <!-- 0.8 -->
      <g transform="translate(315.946842 125.30424) scale(0.1 -0.1)">
       <defs>
        <path id="ArialMT-38" d="M 1131 2484 
Q 781 2613 612 2850 
Q 444 3088 444 3419 
Q 444 3919 803 4259 
Q 1163 4600 1759 4600 
Q 2359 4600 2725 4251 
Q 3091 3903 3091 3403 
Q 3091 3084 2923 2848 
Q 2756 2613 2416 2484 
Q 2838 2347 3058 2040 
Q 3278 1734 3278 1309 
Q 3278 722 2862 322 
Q 2447 -78 1769 -78 
Q 1091 -78 675 323 
Q 259 725 259 1325 
Q 259 1772 486 2073 
Q 713 2375 1131 2484 
z
M 1019 3438 
Q 1019 3113 1228 2906 
Q 1438 2700 1772 2700 
Q 2097 2700 2305 2904 
Q 2513 3109 2513 3406 
Q 2513 3716 2298 3927 
Q 2084 4138 1766 4138 
Q 1444 4138 1231 3931 
Q 1019 3725 1019 3438 
z
M 838 1322 
Q 838 1081 952 856 
Q 1066 631 1291 507 
Q 1516 384 1775 384 
Q 2178 384 2440 643 
Q 2703 903 2703 1303 
Q 2703 1709 2433 1975 
Q 2163 2241 1756 2241 
Q 1359 2241 1098 1978 
Q 838 1716 838 1322 
z
" transform="scale(0.015625)"/>
       </defs>
       <use xlink:href="#ArialMT-30"/>
       <use xlink:href="#ArialMT-2e" x="55.615234"/>
       <use xlink:href="#ArialMT-38" x="83.398438"/>
      </g>
     </g>
    </g>
    <g id="ytick_6">
     <g id="line2d_8">
      <g>
       <use xlink:href="#m00049246f1" x="336.846842" y="90.646667" style="stroke: #000000; stroke-width: 0.8"/>
      </g>
     </g>
     <g id="text_9">
      <!-- 1.0 -->
      <g transform="translate(315.946842 94.225573) scale(0.1 -0.1)">
       <defs>
        <path id="ArialMT-31" d="M 2384 0 
L 1822 0 
L 1822 3584 
Q 1619 3391 1289 3197 
Q 959 3003 697 2906 
L 697 3450 
Q 1169 3672 1522 3987 
Q 1875 4303 2022 4600 
L 2384 4600 
L 2384 0 
z
" transform="scale(0.015625)"/>
       </defs>
       <use xlink:href="#ArialMT-31"/>
       <use xlink:href="#ArialMT-2e" x="55.615234"/>
       <use xlink:href="#ArialMT-30" x="83.398438"/>
      </g>
     </g>
    </g>
    <g id="ytick_7">
     <g id="line2d_9">
      <g>
       <use xlink:href="#m00049246f1" x="336.846842" y="59.568" style="stroke: #000000; stroke-width: 0.8"/>
      </g>
     </g>
     <g id="text_10">
      <!-- 1.2 -->
      <g transform="translate(315.946842 63.146906) scale(0.1 -0.1)">
       <use xlink:href="#ArialMT-31"/>
       <use xlink:href="#ArialMT-2e" x="55.615234"/>
       <use xlink:href="#ArialMT-32" x="83.398438"/>
      </g>
     </g>
    </g>
    <g id="text_11">
     <!-- Propotion -->
     <g transform="translate(309.959342 174.206344) rotate(-90) scale(0.1 -0.1)">
      <defs>
       <path id="ArialMT-72" d="M 416 0 
L 416 3319 
L 922 3319 
L 922 2816 
Q 1116 3169 1280 3281 
Q 1444 3394 1641 3394 
Q 1925 3394 2219 3213 
L 2025 2691 
Q 1819 2813 1613 2813 
Q 1428 2813 1281 2702 
Q 1134 2591 1072 2394 
Q 978 2094 978 1738 
L 978 0 
L 416 0 
z
" transform="scale(0.015625)"/>
       <path id="ArialMT-69" d="M 425 3934 
L 425 4581 
L 988 4581 
L 988 3934 
L 425 3934 
z
M 425 0 
L 425 3319 
L 988 3319 
L 988 0 
L 425 0 
z
" transform="scale(0.015625)"/>
      </defs>
      <use xlink:href="#ArialMT-50"/>
      <use xlink:href="#ArialMT-72" x="66.699219"/>
      <use xlink:href="#ArialMT-6f" x="100"/>
      <use xlink:href="#ArialMT-70" x="155.615234"/>
      <use xlink:href="#ArialMT-6f" x="211.230469"/>
      <use xlink:href="#ArialMT-74" x="266.845703"/>
      <use xlink:href="#ArialMT-69" x="294.628906"/>
      <use xlink:href="#ArialMT-6f" x="316.845703"/>
      <use xlink:href="#ArialMT-6e" x="372.460938"/>
     </g>
    </g>
   </g>
   <g id="patch_7">
    <path d="M 336.846842 246.04 
L 336.846842 59.568 
" style="fill: none; stroke: #000000; stroke-width: 0.8; stroke-linejoin: miter; stroke-linecap: square"/>
   </g>
   <g id="patch_8">
    <path d="M 532.996316 246.04 
L 532.996316 59.568 
" style="fill: none; stroke: #000000; stroke-width: 0.8; stroke-linejoin: miter; stroke-linecap: square"/>
   </g>
   <g id="patch_9">
    <path d="M 336.846842 246.04 
L 532.996316 246.04 
" style="fill: none; stroke: #000000; stroke-width: 0.8; stroke-linejoin: miter; stroke-linecap: square"/>
   </g>
   <g id="patch_10">
    <path d="M 336.846842 59.568 
L 532.996316 59.568 
" style="fill: none; stroke: #000000; stroke-width: 0.8; stroke-linejoin: miter; stroke-linecap: square"/>
   </g>
   <g id="text_12">
    <!-- 3 -->
    <g transform="translate(390.10908 225.316156) scale(0.1 -0.1)">
     <defs>
      <path id="ArialMT-33" d="M 269 1209 
L 831 1284 
Q 928 806 1161 595 
Q 1394 384 1728 384 
Q 2125 384 2398 659 
Q 2672 934 2672 1341 
Q 2672 1728 2419 1979 
Q 2166 2231 1775 2231 
Q 1616 2231 1378 2169 
L 1441 2663 
Q 1497 2656 1531 2656 
Q 1891 2656 2178 2843 
Q 2466 3031 2466 3422 
Q 2466 3731 2256 3934 
Q 2047 4138 1716 4138 
Q 1388 4138 1169 3931 
Q 950 3725 888 3313 
L 325 3413 
Q 428 3978 793 4289 
Q 1159 4600 1703 4600 
Q 2078 4600 2393 4439 
Q 2709 4278 2876 4000 
Q 3044 3722 3044 3409 
Q 3044 3113 2884 2869 
Q 2725 2625 2413 2481 
Q 2819 2388 3044 2092 
Q 3269 1797 3269 1353 
Q 3269 753 2831 336 
Q 2394 -81 1725 -81 
Q 1122 -81 723 278 
Q 325 638 269 1209 
z
" transform="scale(0.015625)"/>
     </defs>
     <use xlink:href="#ArialMT-33"/>
    </g>
   </g>
   <g id="text_13">
    <!-- 1 -->
    <g transform="translate(474.17314 235.675712) scale(0.1 -0.1)">
     <use xlink:href="#ArialMT-31"/>
    </g>
   </g>
   <g id="text_14">
    <!-- 30 -->
    <g transform="translate(387.328611 85.462156) scale(0.1 -0.1)">
     <use xlink:href="#ArialMT-33"/>
     <use xlink:href="#ArialMT-30" x="55.615234"/>
    </g>
   </g>
   <g id="text_15">
    <!-- 30 -->
    <g transform="translate(471.392672 85.462156) scale(0.1 -0.1)">
     <use xlink:href="#ArialMT-33"/>
     <use xlink:href="#ArialMT-30" x="55.615234"/>
    </g>
   </g>
   <g id="text_16">
    <!-- Samples with SE=0 -->
    <g transform="translate(382.730016 53.568) scale(0.12 -0.12)">
     <defs>
      <path id="ArialMT-53" d="M 288 1472 
L 859 1522 
Q 900 1178 1048 958 
Q 1197 738 1509 602 
Q 1822 466 2213 466 
Q 2559 466 2825 569 
Q 3091 672 3220 851 
Q 3350 1031 3350 1244 
Q 3350 1459 3225 1620 
Q 3100 1781 2813 1891 
Q 2628 1963 1997 2114 
Q 1366 2266 1113 2400 
Q 784 2572 623 2826 
Q 463 3081 463 3397 
Q 463 3744 659 4045 
Q 856 4347 1234 4503 
Q 1613 4659 2075 4659 
Q 2584 4659 2973 4495 
Q 3363 4331 3572 4012 
Q 3781 3694 3797 3291 
L 3216 3247 
Q 3169 3681 2898 3903 
Q 2628 4125 2100 4125 
Q 1550 4125 1298 3923 
Q 1047 3722 1047 3438 
Q 1047 3191 1225 3031 
Q 1400 2872 2139 2705 
Q 2878 2538 3153 2413 
Q 3553 2228 3743 1945 
Q 3934 1663 3934 1294 
Q 3934 928 3725 604 
Q 3516 281 3123 101 
Q 2731 -78 2241 -78 
Q 1619 -78 1198 103 
Q 778 284 539 648 
Q 300 1013 288 1472 
z
" transform="scale(0.015625)"/>
      <path id="ArialMT-6d" d="M 422 0 
L 422 3319 
L 925 3319 
L 925 2853 
Q 1081 3097 1340 3245 
Q 1600 3394 1931 3394 
Q 2300 3394 2536 3241 
Q 2772 3088 2869 2813 
Q 3263 3394 3894 3394 
Q 4388 3394 4653 3120 
Q 4919 2847 4919 2278 
L 4919 0 
L 4359 0 
L 4359 2091 
Q 4359 2428 4304 2576 
Q 4250 2725 4106 2815 
Q 3963 2906 3769 2906 
Q 3419 2906 3187 2673 
Q 2956 2441 2956 1928 
L 2956 0 
L 2394 0 
L 2394 2156 
Q 2394 2531 2256 2718 
Q 2119 2906 1806 2906 
Q 1569 2906 1367 2781 
Q 1166 2656 1075 2415 
Q 984 2175 984 1722 
L 984 0 
L 422 0 
z
" transform="scale(0.015625)"/>
      <path id="ArialMT-73" d="M 197 991 
L 753 1078 
Q 800 744 1014 566 
Q 1228 388 1613 388 
Q 2000 388 2187 545 
Q 2375 703 2375 916 
Q 2375 1106 2209 1216 
Q 2094 1291 1634 1406 
Q 1016 1563 777 1677 
Q 538 1791 414 1992 
Q 291 2194 291 2438 
Q 291 2659 392 2848 
Q 494 3038 669 3163 
Q 800 3259 1026 3326 
Q 1253 3394 1513 3394 
Q 1903 3394 2198 3281 
Q 2494 3169 2634 2976 
Q 2775 2784 2828 2463 
L 2278 2388 
Q 2241 2644 2061 2787 
Q 1881 2931 1553 2931 
Q 1166 2931 1000 2803 
Q 834 2675 834 2503 
Q 834 2394 903 2306 
Q 972 2216 1119 2156 
Q 1203 2125 1616 2013 
Q 2213 1853 2448 1751 
Q 2684 1650 2818 1456 
Q 2953 1263 2953 975 
Q 2953 694 2789 445 
Q 2625 197 2315 61 
Q 2006 -75 1616 -75 
Q 969 -75 630 194 
Q 291 463 197 991 
z
" transform="scale(0.015625)"/>
      <path id="ArialMT-20" transform="scale(0.015625)"/>
      <path id="ArialMT-77" d="M 1034 0 
L 19 3319 
L 600 3319 
L 1128 1403 
L 1325 691 
Q 1338 744 1497 1375 
L 2025 3319 
L 2603 3319 
L 3100 1394 
L 3266 759 
L 3456 1400 
L 4025 3319 
L 4572 3319 
L 3534 0 
L 2950 0 
L 2422 1988 
L 2294 2553 
L 1622 0 
L 1034 0 
z
" transform="scale(0.015625)"/>
      <path id="ArialMT-45" d="M 506 0 
L 506 4581 
L 3819 4581 
L 3819 4041 
L 1113 4041 
L 1113 2638 
L 3647 2638 
L 3647 2100 
L 1113 2100 
L 1113 541 
L 3925 541 
L 3925 0 
L 506 0 
z
" transform="scale(0.015625)"/>
      <path id="ArialMT-3d" d="M 3381 2694 
L 356 2694 
L 356 3219 
L 3381 3219 
L 3381 2694 
z
M 3381 1303 
L 356 1303 
L 356 1828 
L 3381 1828 
L 3381 1303 
z
" transform="scale(0.015625)"/>
     </defs>
     <use xlink:href="#ArialMT-53"/>
     <use xlink:href="#ArialMT-61" x="66.699219"/>
     <use xlink:href="#ArialMT-6d" x="122.314453"/>
     <use xlink:href="#ArialMT-70" x="205.615234"/>
     <use xlink:href="#ArialMT-6c" x="261.230469"/>
     <use xlink:href="#ArialMT-65" x="283.447266"/>
     <use xlink:href="#ArialMT-73" x="339.0625"/>
     <use xlink:href="#ArialMT-20" x="389.0625"/>
     <use xlink:href="#ArialMT-77" x="416.845703"/>
     <use xlink:href="#ArialMT-69" x="489.0625"/>
     <use xlink:href="#ArialMT-74" x="511.279297"/>
     <use xlink:href="#ArialMT-68" x="539.0625"/>
     <use xlink:href="#ArialMT-20" x="594.677734"/>
     <use xlink:href="#ArialMT-53" x="622.460938"/>
     <use xlink:href="#ArialMT-45" x="689.160156"/>
     <use xlink:href="#ArialMT-3d" x="755.859375"/>
     <use xlink:href="#ArialMT-30" x="814.257812"/>
    </g>
   </g>
  </g>
  <g id="axes_2">
   <g id="patch_11">
    <path d="M 45.83 246.04 
L 291.016842 246.04 
L 291.016842 59.568 
L 45.83 59.568 
z
" style="fill: #ffffff"/>
   </g>
   <g id="PolyCollection_1">
    <defs>
     <path id="m5b8d616e66" d="M 109.164061 -57.6373 
L 105.08936 -57.6373 
L 104.440097 -58.954453 
L 103.630002 -60.271606 
L 102.634434 -61.588759 
L 101.429484 -62.905912 
L 99.993457 -64.223065 
L 98.308611 -65.540218 
L 96.363034 -66.857371 
L 94.152578 -68.174524 
L 91.682698 -69.491677 
L 88.970033 -70.80883 
L 86.043576 -72.125983 
L 82.945252 -73.443136 
L 79.729784 -74.760289 
L 76.463728 -76.077442 
L 73.223651 -77.394595 
L 70.093467 -78.711748 
L 67.161014 -80.028901 
L 64.514068 -81.346054 
L 62.236005 -82.663207 
L 60.401403 -83.98036 
L 59.071897 -85.297513 
L 58.292595 -86.614666 
L 58.089342 -87.931819 
L 58.467054 -89.248972 
L 59.409266 -90.566125 
L 60.878955 -91.883278 
L 62.820564 -93.200431 
L 65.163088 -94.517584 
L 67.823974 -95.834737 
L 70.713542 -97.15189 
L 73.739588 -98.469043 
L 76.81184 -99.786196 
L 79.84598 -101.103349 
L 82.766977 -102.420502 
L 85.511576 -103.737655 
L 88.02987 -105.054808 
L 90.285954 -106.371961 
L 92.257744 -107.689114 
L 93.936098 -109.006267 
L 95.323404 -110.32342 
L 96.431833 -111.640573 
L 97.281413 -112.957726 
L 97.898091 -114.274879 
L 98.311892 -115.592032 
L 98.555252 -116.909185 
L 98.661567 -118.226338 
L 98.663967 -119.543491 
L 98.594299 -120.860644 
L 98.482304 -122.177797 
L 98.354942 -123.49495 
L 98.235872 -124.812103 
L 98.14505 -126.129256 
L 98.09846 -127.446409 
L 98.10797 -128.763562 
L 98.181325 -130.080715 
L 98.322281 -131.397868 
L 98.530875 -132.715021 
L 98.803813 -134.032173 
L 99.134963 -135.349326 
L 99.515911 -136.666479 
L 99.936559 -137.983632 
L 100.385712 -139.300785 
L 100.851649 -140.617938 
L 101.322634 -141.935091 
L 101.787368 -143.252244 
L 102.235376 -144.569397 
L 102.657333 -145.88655 
L 103.045329 -147.203703 
L 103.39309 -148.520856 
L 103.696146 -149.838009 
L 103.951953 -151.155162 
L 104.159957 -152.472315 
L 104.321588 -153.789468 
L 104.440176 -155.106621 
L 104.520775 -156.423774 
L 104.569895 -157.740927 
L 104.595145 -159.05808 
L 104.6048 -160.375233 
L 104.607322 -161.692386 
L 104.610862 -163.009539 
L 104.622785 -164.326692 
L 104.649251 -165.643845 
L 104.694895 -166.960998 
L 104.762617 -168.278151 
L 104.853519 -169.595304 
L 104.966962 -170.912457 
L 105.100763 -172.22961 
L 105.251474 -173.546763 
L 105.41475 -174.863916 
L 105.585731 -176.181069 
L 105.759431 -177.498222 
L 105.931087 -178.815375 
L 106.096449 -180.132528 
L 106.251986 -181.449681 
L 106.395012 -182.766834 
L 106.523728 -184.083987 
L 106.63719 -185.40114 
L 106.735224 -186.718293 
L 106.818299 -188.035446 
L 107.435122 -188.035446 
L 107.435122 -188.035446 
L 107.518197 -186.718293 
L 107.616231 -185.40114 
L 107.729693 -184.083987 
L 107.858409 -182.766834 
L 108.001435 -181.449681 
L 108.156972 -180.132528 
L 108.322334 -178.815375 
L 108.49399 -177.498222 
L 108.66769 -176.181069 
L 108.838671 -174.863916 
L 109.001947 -173.546763 
L 109.152658 -172.22961 
L 109.286459 -170.912457 
L 109.399902 -169.595304 
L 109.490804 -168.278151 
L 109.558527 -166.960998 
L 109.60417 -165.643845 
L 109.630636 -164.326692 
L 109.642559 -163.009539 
L 109.646099 -161.692386 
L 109.648621 -160.375233 
L 109.658276 -159.05808 
L 109.683526 -157.740927 
L 109.732646 -156.423774 
L 109.813245 -155.106621 
L 109.931833 -153.789468 
L 110.093464 -152.472315 
L 110.301468 -151.155162 
L 110.557275 -149.838009 
L 110.860331 -148.520856 
L 111.208092 -147.203703 
L 111.596088 -145.88655 
L 112.018045 -144.569397 
L 112.466053 -143.252244 
L 112.930787 -141.935091 
L 113.401772 -140.617938 
L 113.867709 -139.300785 
L 114.316862 -137.983632 
L 114.73751 -136.666479 
L 115.118458 -135.349326 
L 115.449608 -134.032173 
L 115.722546 -132.715021 
L 115.93114 -131.397868 
L 116.072096 -130.080715 
L 116.145451 -128.763562 
L 116.154961 -127.446409 
L 116.108371 -126.129256 
L 116.01755 -124.812103 
L 115.898479 -123.49495 
L 115.771117 -122.177797 
L 115.659122 -120.860644 
L 115.589454 -119.543491 
L 115.591854 -118.226338 
L 115.698169 -116.909185 
L 115.941529 -115.592032 
L 116.35533 -114.274879 
L 116.972008 -112.957726 
L 117.821588 -111.640573 
L 118.930017 -110.32342 
L 120.317323 -109.006267 
L 121.995677 -107.689114 
L 123.967467 -106.371961 
L 126.223551 -105.054808 
L 128.741845 -103.737655 
L 131.486444 -102.420502 
L 134.407441 -101.103349 
L 137.441581 -99.786196 
L 140.513833 -98.469043 
L 143.539879 -97.15189 
L 146.429447 -95.834737 
L 149.090333 -94.517584 
L 151.432857 -93.200431 
L 153.374466 -91.883278 
L 154.844155 -90.566125 
L 155.786367 -89.248972 
L 156.164079 -87.931819 
L 155.960826 -86.614666 
L 155.181524 -85.297513 
L 153.852018 -83.98036 
L 152.017416 -82.663207 
L 149.739353 -81.346054 
L 147.092407 -80.028901 
L 144.159954 -78.711748 
L 141.02977 -77.394595 
L 137.789694 -76.077442 
L 134.523637 -74.760289 
L 131.308169 -73.443136 
L 128.209845 -72.125983 
L 125.283388 -70.80883 
L 122.570723 -69.491677 
L 120.100843 -68.174524 
L 117.890387 -66.857371 
L 115.94481 -65.540218 
L 114.259964 -64.223065 
L 112.823937 -62.905912 
L 111.618987 -61.588759 
L 110.62342 -60.271606 
L 109.813324 -58.954453 
L 109.164061 -57.6373 
z
" style="stroke: #494949; stroke-width: 1.5"/>
    </defs>
    <g clip-path="url(#p299f0d66c0)">
     <use xlink:href="#m5b8d616e66" x="0" y="288" style="fill: #b75851; stroke: #494949; stroke-width: 1.5"/>
    </g>
   </g>
   <g id="PolyCollection_2">
    <defs>
     <path id="m663ad2270d" d="M 231.039655 -50.436 
L 228.400608 -50.436 
L 227.993367 -52.148323 
L 227.48904 -53.860646 
L 226.873525 -55.57297 
L 226.133163 -57.285293 
L 225.255461 -58.997616 
L 224.229871 -60.709939 
L 223.048579 -62.422263 
L 221.707224 -64.134586 
L 220.205509 -65.846909 
L 218.547604 -67.559232 
L 216.742321 -69.271556 
L 214.803003 -70.983879 
L 212.747145 -72.696202 
L 210.595739 -74.408525 
L 208.372427 -76.120848 
L 206.10251 -77.833172 
L 203.81192 -79.545495 
L 201.526254 -81.257818 
L 199.269954 -82.970141 
L 197.065707 -84.682465 
L 194.934129 -86.394788 
L 192.893707 -88.107111 
L 190.961019 -89.819434 
L 189.151136 -91.531758 
L 187.478145 -93.244081 
L 185.955691 -94.956404 
L 184.597428 -96.668727 
L 183.417314 -98.381051 
L 182.429658 -100.093374 
L 181.648906 -101.805697 
L 181.089154 -103.51802 
L 180.763422 -105.230343 
L 180.682763 -106.942667 
L 180.855282 -108.65499 
L 181.285176 -110.367313 
L 181.971887 -112.079636 
L 182.909473 -113.79196 
L 184.08626 -115.504283 
L 185.48483 -117.216606 
L 187.082355 -118.928929 
L 188.851274 -120.641253 
L 190.760256 -122.353576 
L 192.775379 -124.065899 
L 194.861454 -125.778222 
L 196.983366 -127.490545 
L 199.107372 -129.202869 
L 201.202241 -130.915192 
L 203.240179 -132.627515 
L 205.19749 -134.339838 
L 207.05495 -136.052162 
L 208.797902 -137.764485 
L 210.41609 -139.476808 
L 211.903293 -141.189131 
L 213.256806 -142.901455 
L 214.476846 -144.613778 
L 215.565941 -146.326101 
L 216.528361 -148.038424 
L 217.369646 -149.750747 
L 218.096239 -151.463071 
L 218.715262 -153.175394 
L 219.23439 -154.887717 
L 219.661839 -156.60004 
L 220.006394 -158.312364 
L 220.277465 -160.024687 
L 220.485115 -161.73701 
L 220.640037 -163.449333 
L 220.753446 -165.161657 
L 220.836895 -166.87398 
L 220.902007 -168.586303 
L 220.960156 -170.298626 
L 221.022107 -172.010949 
L 221.097668 -173.723273 
L 221.195375 -175.435596 
L 221.322235 -177.147919 
L 221.483549 -178.860242 
L 221.68283 -180.572566 
L 221.92179 -182.284889 
L 222.200427 -183.997212 
L 222.517151 -185.709535 
L 222.868972 -187.421859 
L 223.25171 -189.134182 
L 223.660219 -190.846505 
L 224.088629 -192.558828 
L 224.530574 -194.271152 
L 224.979426 -195.983475 
L 225.428527 -197.695798 
L 225.871399 -199.408121 
L 226.30196 -201.120444 
L 226.714706 -202.832768 
L 227.104877 -204.545091 
L 227.468584 -206.257414 
L 227.802897 -207.969737 
L 228.105885 -209.682061 
L 228.376609 -211.394384 
L 228.615067 -213.106707 
L 228.822099 -214.81903 
L 228.999255 -216.531354 
L 229.148648 -218.243677 
L 229.272792 -219.956 
L 230.167472 -219.956 
L 230.167472 -219.956 
L 230.291615 -218.243677 
L 230.441008 -216.531354 
L 230.618164 -214.81903 
L 230.825196 -213.106707 
L 231.063654 -211.394384 
L 231.334378 -209.682061 
L 231.637366 -207.969737 
L 231.971679 -206.257414 
L 232.335386 -204.545091 
L 232.725557 -202.832768 
L 233.138303 -201.120444 
L 233.568864 -199.408121 
L 234.011737 -197.695798 
L 234.460837 -195.983475 
L 234.909689 -194.271152 
L 235.351634 -192.558828 
L 235.780044 -190.846505 
L 236.188553 -189.134182 
L 236.571291 -187.421859 
L 236.923112 -185.709535 
L 237.239836 -183.997212 
L 237.518473 -182.284889 
L 237.757434 -180.572566 
L 237.956714 -178.860242 
L 238.118029 -177.147919 
L 238.244888 -175.435596 
L 238.342595 -173.723273 
L 238.418156 -172.010949 
L 238.480107 -170.298626 
L 238.538256 -168.586303 
L 238.603369 -166.87398 
L 238.686817 -165.161657 
L 238.800226 -163.449333 
L 238.955148 -161.73701 
L 239.162798 -160.024687 
L 239.433869 -158.312364 
L 239.778424 -156.60004 
L 240.205873 -154.887717 
L 240.725002 -153.175394 
L 241.344024 -151.463071 
L 242.070618 -149.750747 
L 242.911902 -148.038424 
L 243.874323 -146.326101 
L 244.963417 -144.613778 
L 246.183458 -142.901455 
L 247.536971 -141.189131 
L 249.024173 -139.476808 
L 250.642361 -137.764485 
L 252.385313 -136.052162 
L 254.242773 -134.339838 
L 256.200084 -132.627515 
L 258.238022 -130.915192 
L 260.332891 -129.202869 
L 262.456897 -127.490545 
L 264.578809 -125.778222 
L 266.664884 -124.065899 
L 268.680008 -122.353576 
L 270.588989 -120.641253 
L 272.357908 -118.928929 
L 273.955434 -117.216606 
L 275.354003 -115.504283 
L 276.53079 -113.79196 
L 277.468377 -112.079636 
L 278.155087 -110.367313 
L 278.584981 -108.65499 
L 278.7575 -106.942667 
L 278.676841 -105.230343 
L 278.351109 -103.51802 
L 277.791357 -101.805697 
L 277.010605 -100.093374 
L 276.022949 -98.381051 
L 274.842835 -96.668727 
L 273.484572 -94.956404 
L 271.962118 -93.244081 
L 270.289128 -91.531758 
L 268.479245 -89.819434 
L 266.546556 -88.107111 
L 264.506135 -86.394788 
L 262.374556 -84.682465 
L 260.17031 -82.970141 
L 257.914009 -81.257818 
L 255.628343 -79.545495 
L 253.337753 -77.833172 
L 251.067836 -76.120848 
L 248.844524 -74.408525 
L 246.693118 -72.696202 
L 244.63726 -70.983879 
L 242.697942 -69.271556 
L 240.892659 -67.559232 
L 239.234754 -65.846909 
L 237.733039 -64.134586 
L 236.391684 -62.422263 
L 235.210392 -60.709939 
L 234.184802 -58.997616 
L 233.307101 -57.285293 
L 232.566738 -55.57297 
L 231.951223 -53.860646 
L 231.446896 -52.148323 
L 231.039655 -50.436 
z
" style="stroke: #494949; stroke-width: 1.5"/>
    </defs>
    <g clip-path="url(#pec302b8a78)">
     <use xlink:href="#m663ad2270d" x="0" y="288" style="fill: #4881aa; stroke: #494949; stroke-width: 1.5"/>
    </g>
   </g>
   <g id="matplotlib.axis_3">
    <g id="xtick_3">
     <g id="line2d_10">
      <g>
       <use xlink:href="#mfa6bc80bcc" x="107.126711" y="246.04" style="stroke: #000000; stroke-width: 0.8"/>
      </g>
     </g>
     <g id="text_17">
      <!-- CRC -->
      <g transform="translate(96.293898 260.197812) scale(0.1 -0.1)">
       <use xlink:href="#ArialMT-43"/>
       <use xlink:href="#ArialMT-52" x="72.216797"/>
       <use xlink:href="#ArialMT-43" x="144.433594"/>
      </g>
     </g>
    </g>
    <g id="xtick_4">
     <g id="line2d_11">
      <g>
       <use xlink:href="#mfa6bc80bcc" x="229.720132" y="246.04" style="stroke: #000000; stroke-width: 0.8"/>
      </g>
     </g>
     <g id="text_18">
      <!-- Health -->
      <g transform="translate(215.267788 260.197812) scale(0.1 -0.1)">
       <use xlink:href="#ArialMT-48"/>
       <use xlink:href="#ArialMT-65" x="72.216797"/>
       <use xlink:href="#ArialMT-61" x="127.832031"/>
       <use xlink:href="#ArialMT-6c" x="183.447266"/>
       <use xlink:href="#ArialMT-74" x="205.664062"/>
       <use xlink:href="#ArialMT-68" x="233.447266"/>
      </g>
     </g>
    </g>
    <g id="text_19">
     <!-- Phenotype -->
     <g transform="translate(144.51639 273.343125) scale(0.1 -0.1)">
      <use xlink:href="#ArialMT-50"/>
      <use xlink:href="#ArialMT-68" x="66.699219"/>
      <use xlink:href="#ArialMT-65" x="122.314453"/>
      <use xlink:href="#ArialMT-6e" x="177.929688"/>
      <use xlink:href="#ArialMT-6f" x="233.544922"/>
      <use xlink:href="#ArialMT-74" x="289.160156"/>
      <use xlink:href="#ArialMT-79" x="316.943359"/>
      <use xlink:href="#ArialMT-70" x="366.943359"/>
      <use xlink:href="#ArialMT-65" x="422.558594"/>
     </g>
    </g>
   </g>
   <g id="matplotlib.axis_4">
    <g id="ytick_8">
     <g id="line2d_12">
      <g>
       <use xlink:href="#m00049246f1" x="45.83" y="208.932982" style="stroke: #000000; stroke-width: 0.8"/>
      </g>
     </g>
     <g id="text_20">
      <!-- 0.0 -->
      <g transform="translate(24.93 212.511889) scale(0.1 -0.1)">
       <use xlink:href="#ArialMT-30"/>
       <use xlink:href="#ArialMT-2e" x="55.615234"/>
       <use xlink:href="#ArialMT-30" x="83.398438"/>
      </g>
     </g>
    </g>
    <g id="ytick_9">
     <g id="line2d_13">
      <g>
       <use xlink:href="#m00049246f1" x="45.83" y="171.329829" style="stroke: #000000; stroke-width: 0.8"/>
      </g>
     </g>
     <g id="text_21">
      <!-- 0.5 -->
      <g transform="translate(24.93 174.908735) scale(0.1 -0.1)">
       <defs>
        <path id="ArialMT-35" d="M 266 1200 
L 856 1250 
Q 922 819 1161 601 
Q 1400 384 1738 384 
Q 2144 384 2425 690 
Q 2706 997 2706 1503 
Q 2706 1984 2436 2262 
Q 2166 2541 1728 2541 
Q 1456 2541 1237 2417 
Q 1019 2294 894 2097 
L 366 2166 
L 809 4519 
L 3088 4519 
L 3088 3981 
L 1259 3981 
L 1013 2750 
Q 1425 3038 1878 3038 
Q 2478 3038 2890 2622 
Q 3303 2206 3303 1553 
Q 3303 931 2941 478 
Q 2500 -78 1738 -78 
Q 1113 -78 717 272 
Q 322 622 266 1200 
z
" transform="scale(0.015625)"/>
       </defs>
       <use xlink:href="#ArialMT-30"/>
       <use xlink:href="#ArialMT-2e" x="55.615234"/>
       <use xlink:href="#ArialMT-35" x="83.398438"/>
      </g>
     </g>
    </g>
    <g id="ytick_10">
     <g id="line2d_14">
      <g>
       <use xlink:href="#m00049246f1" x="45.83" y="133.726676" style="stroke: #000000; stroke-width: 0.8"/>
      </g>
     </g>
     <g id="text_22">
      <!-- 1.0 -->
      <g transform="translate(24.93 137.305582) scale(0.1 -0.1)">
       <use xlink:href="#ArialMT-31"/>
       <use xlink:href="#ArialMT-2e" x="55.615234"/>
       <use xlink:href="#ArialMT-30" x="83.398438"/>
      </g>
     </g>
    </g>
    <g id="ytick_11">
     <g id="line2d_15">
      <g>
       <use xlink:href="#m00049246f1" x="45.83" y="96.123522" style="stroke: #000000; stroke-width: 0.8"/>
      </g>
     </g>
     <g id="text_23">
      <!-- 1.5 -->
      <g transform="translate(24.93 99.702428) scale(0.1 -0.1)">
       <use xlink:href="#ArialMT-31"/>
       <use xlink:href="#ArialMT-2e" x="55.615234"/>
       <use xlink:href="#ArialMT-35" x="83.398438"/>
      </g>
     </g>
    </g>
    <g id="text_24">
     <!-- SE -->
     <g transform="translate(18.9425 159.474312) rotate(-90) scale(0.1 -0.1)">
      <use xlink:href="#ArialMT-53"/>
      <use xlink:href="#ArialMT-45" x="66.699219"/>
     </g>
    </g>
   </g>
   <g id="line2d_16">
    <path d="M 107.126711 202.318809 
L 107.126711 208.932982 
" clip-path="url(#p4b3fa10908)" style="fill: none; stroke: #3f3f3f; stroke-width: 1.5; stroke-linecap: square"/>
   </g>
   <g id="line2d_17">
    <path d="M 107.126711 193.578122 
L 107.126711 187.87822 
" clip-path="url(#p4b3fa10908)" style="fill: none; stroke: #3f3f3f; stroke-width: 1.5; stroke-linecap: square"/>
   </g>
   <g id="line2d_18">
    <path d="M 97.932204 208.932982 
L 116.321217 208.932982 
" clip-path="url(#p4b3fa10908)" style="fill: none; stroke: #3f3f3f; stroke-width: 1.5; stroke-linecap: square"/>
   </g>
   <g id="line2d_19">
    <path d="M 97.932204 187.87822 
L 116.321217 187.87822 
" clip-path="url(#p4b3fa10908)" style="fill: none; stroke: #3f3f3f; stroke-width: 1.5; stroke-linecap: square"/>
   </g>
   <g id="line2d_20">
    <path d="M 229.720132 190.848713 
L 229.720132 208.932982 
" clip-path="url(#p4b3fa10908)" style="fill: none; stroke: #3f3f3f; stroke-width: 1.5; stroke-linecap: square"/>
   </g>
   <g id="line2d_21">
    <path d="M 229.720132 163.596418 
L 229.720132 135.681658 
" clip-path="url(#p4b3fa10908)" style="fill: none; stroke: #3f3f3f; stroke-width: 1.5; stroke-linecap: square"/>
   </g>
   <g id="line2d_22">
    <path d="M 220.525625 208.932982 
L 238.914638 208.932982 
" clip-path="url(#p4b3fa10908)" style="fill: none; stroke: #3f3f3f; stroke-width: 1.5; stroke-linecap: square"/>
   </g>
   <g id="line2d_23">
    <path d="M 220.525625 135.681658 
L 238.914638 135.681658 
" clip-path="url(#p4b3fa10908)" style="fill: none; stroke: #3f3f3f; stroke-width: 1.5; stroke-linecap: square"/>
   </g>
   <g id="line2d_24">
    <path d="M 88.737697 198.084449 
L 125.515724 198.084449 
" clip-path="url(#p4b3fa10908)" style="fill: none; stroke: #3f3f3f; stroke-width: 1.5; stroke-linecap: square"/>
   </g>
   <g id="line2d_25">
    <path d="M 211.331118 177.068731 
L 248.109145 177.068731 
" clip-path="url(#p4b3fa10908)" style="fill: none; stroke: #3f3f3f; stroke-width: 1.5; stroke-linecap: square"/>
   </g>
   <g id="patch_12">
    <path d="M 45.83 246.04 
L 45.83 59.568 
" style="fill: none; stroke: #000000; stroke-width: 0.8; stroke-linejoin: miter; stroke-linecap: square"/>
   </g>
   <g id="patch_13">
    <path d="M 291.016842 246.04 
L 291.016842 59.568 
" style="fill: none; stroke: #000000; stroke-width: 0.8; stroke-linejoin: miter; stroke-linecap: square"/>
   </g>
   <g id="patch_14">
    <path d="M 45.83 246.04 
L 291.016842 246.04 
" style="fill: none; stroke: #000000; stroke-width: 0.8; stroke-linejoin: miter; stroke-linecap: square"/>
   </g>
   <g id="patch_15">
    <path d="M 45.83 59.568 
L 291.016842 59.568 
" style="fill: none; stroke: #000000; stroke-width: 0.8; stroke-linejoin: miter; stroke-linecap: square"/>
   </g>
   <g id="patch_16">
    <path d="M 88.737697 202.318809 
L 125.515724 202.318809 
L 125.515724 193.578122 
L 88.737697 193.578122 
L 88.737697 202.318809 
L 88.737697 202.318809 
z
" clip-path="url(#p4b3fa10908)" style="fill: none; stroke: #3f3f3f; stroke-width: 1.5; stroke-linejoin: miter"/>
   </g>
   <g id="patch_17">
    <path d="M 211.331118 190.848713 
L 248.109145 190.848713 
L 248.109145 163.596418 
L 211.331118 163.596418 
L 211.331118 190.848713 
L 211.331118 190.848713 
z
" clip-path="url(#p4b3fa10908)" style="fill: none; stroke: #3f3f3f; stroke-width: 1.5; stroke-linejoin: miter"/>
   </g>
   <g id="PathCollection_1">
    <defs>
     <path id="C0_0_9074869955" d="M 0 2.5 
C 0.663008 2.5 1.29895 2.236584 1.767767 1.767767 
C 2.236584 1.29895 2.5 0.663008 2.5 -0 
C 2.5 -0.663008 2.236584 -1.29895 1.767767 -1.767767 
C 1.29895 -2.236584 0.663008 -2.5 0 -2.5 
C -0.663008 -2.5 -1.29895 -2.236584 -1.767767 -1.767767 
C -2.236584 -1.29895 -2.5 -0.663008 -2.5 0 
C -2.5 0.663008 -2.236584 1.29895 -1.767767 1.767767 
C -1.29895 2.236584 -0.663008 2.5 0 2.5 
z
"/>
    </defs>
    <g clip-path="url(#p4b3fa10908)">
     <use xlink:href="#C0_0_9074869955" x="119.867483" y="208.932982" style="fill: #c84940"/>
    </g>
    <g clip-path="url(#p4b3fa10908)">
     <use xlink:href="#C0_0_9074869955" x="125.033924" y="208.932982" style="fill: #c84940"/>
    </g>
    <g clip-path="url(#p4b3fa10908)">
     <use xlink:href="#C0_0_9074869955" x="124.561977" y="208.932982" style="fill: #c84940"/>
    </g>
    <g clip-path="url(#p4b3fa10908)">
     <use xlink:href="#C0_0_9074869955" x="113.311501" y="206.519229" style="fill: #c84940"/>
    </g>
    <g clip-path="url(#p4b3fa10908)">
     <use xlink:href="#C0_0_9074869955" x="115.525251" y="206.265396" style="fill: #c84940"/>
    </g>
    <g clip-path="url(#p4b3fa10908)">
     <use xlink:href="#C0_0_9074869955" x="112.97056" y="204.336592" style="fill: #c84940"/>
    </g>
    <g clip-path="url(#p4b3fa10908)">
     <use xlink:href="#C0_0_9074869955" x="126.195129" y="203.662551" style="fill: #c84940"/>
    </g>
    <g clip-path="url(#p4b3fa10908)">
     <use xlink:href="#C0_0_9074869955" x="113.1748" y="202.333505" style="fill: #c84940"/>
    </g>
    <g clip-path="url(#p4b3fa10908)">
     <use xlink:href="#C0_0_9074869955" x="114.659764" y="202.27472" style="fill: #c84940"/>
    </g>
    <g clip-path="url(#p4b3fa10908)">
     <use xlink:href="#C0_0_9074869955" x="117.663146" y="202.260237" style="fill: #c84940"/>
    </g>
    <g clip-path="url(#p4b3fa10908)">
     <use xlink:href="#C0_0_9074869955" x="129.906402" y="200.631089" style="fill: #c84940"/>
    </g>
    <g clip-path="url(#p4b3fa10908)">
     <use xlink:href="#C0_0_9074869955" x="117.701281" y="199.75303" style="fill: #c84940"/>
    </g>
    <g clip-path="url(#p4b3fa10908)">
     <use xlink:href="#C0_0_9074869955" x="128.027516" y="199.725353" style="fill: #c84940"/>
    </g>
    <g clip-path="url(#p4b3fa10908)">
     <use xlink:href="#C0_0_9074869955" x="119.171072" y="198.470017" style="fill: #c84940"/>
    </g>
    <g clip-path="url(#p4b3fa10908)">
     <use xlink:href="#C0_0_9074869955" x="125.745215" y="198.198869" style="fill: #c84940"/>
    </g>
    <g clip-path="url(#p4b3fa10908)">
     <use xlink:href="#C0_0_9074869955" x="112.480289" y="197.970029" style="fill: #c84940"/>
    </g>
    <g clip-path="url(#p4b3fa10908)">
     <use xlink:href="#C0_0_9074869955" x="119.473524" y="197.615733" style="fill: #c84940"/>
    </g>
    <g clip-path="url(#p4b3fa10908)">
     <use xlink:href="#C0_0_9074869955" x="111.651111" y="197.265043" style="fill: #c84940"/>
    </g>
    <g clip-path="url(#p4b3fa10908)">
     <use xlink:href="#C0_0_9074869955" x="110.522491" y="196.791035" style="fill: #c84940"/>
    </g>
    <g clip-path="url(#p4b3fa10908)">
     <use xlink:href="#C0_0_9074869955" x="116.963101" y="196.705277" style="fill: #c84940"/>
    </g>
    <g clip-path="url(#p4b3fa10908)">
     <use xlink:href="#C0_0_9074869955" x="114.870222" y="194.543435" style="fill: #c84940"/>
    </g>
    <g clip-path="url(#p4b3fa10908)">
     <use xlink:href="#C0_0_9074869955" x="128.302684" y="194.004355" style="fill: #c84940"/>
    </g>
    <g clip-path="url(#p4b3fa10908)">
     <use xlink:href="#C0_0_9074869955" x="116.879023" y="193.436045" style="fill: #c84940"/>
    </g>
    <g clip-path="url(#p4b3fa10908)">
     <use xlink:href="#C0_0_9074869955" x="121.46913" y="187.87822" style="fill: #c84940"/>
    </g>
    <g clip-path="url(#p4b3fa10908)">
     <use xlink:href="#C0_0_9074869955" x="119.714429" y="172.651834" style="fill: #c84940"/>
    </g>
    <g clip-path="url(#p4b3fa10908)">
     <use xlink:href="#C0_0_9074869955" x="122.440727" y="160.978029" style="fill: #c84940"/>
    </g>
    <g clip-path="url(#p4b3fa10908)">
     <use xlink:href="#C0_0_9074869955" x="110.898829" y="159.712721" style="fill: #c84940"/>
    </g>
    <g clip-path="url(#p4b3fa10908)">
     <use xlink:href="#C0_0_9074869955" x="126.858474" y="156.762389" style="fill: #c84940"/>
    </g>
    <g clip-path="url(#p4b3fa10908)">
     <use xlink:href="#C0_0_9074869955" x="113.215095" y="146.303638" style="fill: #c84940"/>
    </g>
    <g clip-path="url(#p4b3fa10908)">
     <use xlink:href="#C0_0_9074869955" x="128.937475" y="121.394271" style="fill: #c84940"/>
    </g>
   </g>
   <g id="PathCollection_2">
    <defs>
     <path id="C1_0_6b84f989ec" d="M 0 2.5 
C 0.663008 2.5 1.29895 2.236584 1.767767 1.767767 
C 2.236584 1.29895 2.5 0.663008 2.5 -0 
C 2.5 -0.663008 2.236584 -1.29895 1.767767 -1.767767 
C 1.29895 -2.236584 0.663008 -2.5 0 -2.5 
C -0.663008 -2.5 -1.29895 -2.236584 -1.767767 -1.767767 
C -2.236584 -1.29895 -2.5 -0.663008 -2.5 0 
C -2.5 0.663008 -2.236584 1.29895 -1.767767 1.767767 
C -1.29895 2.236584 -0.663008 2.5 0 2.5 
z
"/>
    </defs>
    <g clip-path="url(#p4b3fa10908)">
     <use xlink:href="#C1_0_6b84f989ec" x="253.837568" y="208.932982" style="fill: #3784bb"/>
    </g>
    <g clip-path="url(#p4b3fa10908)">
     <use xlink:href="#C1_0_6b84f989ec" x="241.625199" y="205.641846" style="fill: #3784bb"/>
    </g>
    <g clip-path="url(#p4b3fa10908)">
     <use xlink:href="#C1_0_6b84f989ec" x="246.857811" y="204.063995" style="fill: #3784bb"/>
    </g>
    <g clip-path="url(#p4b3fa10908)">
     <use xlink:href="#C1_0_6b84f989ec" x="235.597309" y="203.606636" style="fill: #3784bb"/>
    </g>
    <g clip-path="url(#p4b3fa10908)">
     <use xlink:href="#C1_0_6b84f989ec" x="243.185544" y="202.973257" style="fill: #3784bb"/>
    </g>
    <g clip-path="url(#p4b3fa10908)">
     <use xlink:href="#C1_0_6b84f989ec" x="244.521751" y="196.93023" style="fill: #3784bb"/>
    </g>
    <g clip-path="url(#p4b3fa10908)">
     <use xlink:href="#C1_0_6b84f989ec" x="248.198509" y="194.581917" style="fill: #3784bb"/>
    </g>
    <g clip-path="url(#p4b3fa10908)">
     <use xlink:href="#C1_0_6b84f989ec" x="244.386814" y="191.915765" style="fill: #3784bb"/>
    </g>
    <g clip-path="url(#p4b3fa10908)">
     <use xlink:href="#C1_0_6b84f989ec" x="236.439895" y="187.647555" style="fill: #3784bb"/>
    </g>
    <g clip-path="url(#p4b3fa10908)">
     <use xlink:href="#C1_0_6b84f989ec" x="256.281697" y="187.176947" style="fill: #3784bb"/>
    </g>
    <g clip-path="url(#p4b3fa10908)">
     <use xlink:href="#C1_0_6b84f989ec" x="252.179427" y="186.003942" style="fill: #3784bb"/>
    </g>
    <g clip-path="url(#p4b3fa10908)">
     <use xlink:href="#C1_0_6b84f989ec" x="253.188093" y="185.9996" style="fill: #3784bb"/>
    </g>
    <g clip-path="url(#p4b3fa10908)">
     <use xlink:href="#C1_0_6b84f989ec" x="234.650997" y="181.522853" style="fill: #3784bb"/>
    </g>
    <g clip-path="url(#p4b3fa10908)">
     <use xlink:href="#C1_0_6b84f989ec" x="250.454427" y="179.802492" style="fill: #3784bb"/>
    </g>
    <g clip-path="url(#p4b3fa10908)">
     <use xlink:href="#C1_0_6b84f989ec" x="237.494261" y="179.531201" style="fill: #3784bb"/>
    </g>
    <g clip-path="url(#p4b3fa10908)">
     <use xlink:href="#C1_0_6b84f989ec" x="254.074182" y="174.60626" style="fill: #3784bb"/>
    </g>
    <g clip-path="url(#p4b3fa10908)">
     <use xlink:href="#C1_0_6b84f989ec" x="252.922738" y="174.524539" style="fill: #3784bb"/>
    </g>
    <g clip-path="url(#p4b3fa10908)">
     <use xlink:href="#C1_0_6b84f989ec" x="255.206291" y="173.380204" style="fill: #3784bb"/>
    </g>
    <g clip-path="url(#p4b3fa10908)">
     <use xlink:href="#C1_0_6b84f989ec" x="241.328819" y="171.704736" style="fill: #3784bb"/>
    </g>
    <g clip-path="url(#p4b3fa10908)">
     <use xlink:href="#C1_0_6b84f989ec" x="233.393929" y="170.427397" style="fill: #3784bb"/>
    </g>
    <g clip-path="url(#p4b3fa10908)">
     <use xlink:href="#C1_0_6b84f989ec" x="237.751729" y="170.307862" style="fill: #3784bb"/>
    </g>
    <g clip-path="url(#p4b3fa10908)">
     <use xlink:href="#C1_0_6b84f989ec" x="246.83033" y="166.333789" style="fill: #3784bb"/>
    </g>
    <g clip-path="url(#p4b3fa10908)">
     <use xlink:href="#C1_0_6b84f989ec" x="245.497505" y="162.683961" style="fill: #3784bb"/>
    </g>
    <g clip-path="url(#p4b3fa10908)">
     <use xlink:href="#C1_0_6b84f989ec" x="238.023896" y="157.924728" style="fill: #3784bb"/>
    </g>
    <g clip-path="url(#p4b3fa10908)">
     <use xlink:href="#C1_0_6b84f989ec" x="252.579461" y="154.493022" style="fill: #3784bb"/>
    </g>
    <g clip-path="url(#p4b3fa10908)">
     <use xlink:href="#C1_0_6b84f989ec" x="255.294992" y="144.530137" style="fill: #3784bb"/>
    </g>
    <g clip-path="url(#p4b3fa10908)">
     <use xlink:href="#C1_0_6b84f989ec" x="241.273964" y="135.681658" style="fill: #3784bb"/>
    </g>
    <g clip-path="url(#p4b3fa10908)">
     <use xlink:href="#C1_0_6b84f989ec" x="250.934486" y="117.70048" style="fill: #3784bb"/>
    </g>
    <g clip-path="url(#p4b3fa10908)">
     <use xlink:href="#C1_0_6b84f989ec" x="252.287313" y="110.750186" style="fill: #3784bb"/>
    </g>
    <g clip-path="url(#p4b3fa10908)">
     <use xlink:href="#C1_0_6b84f989ec" x="244.253265" y="96.675018" style="fill: #3784bb"/>
    </g>
   </g>
   <g id="text_25">
    <!-- SE distribution -->
    <g transform="translate(129.738421 40.70025) scale(0.12 -0.12)">
     <defs>
      <path id="ArialMT-64" d="M 2575 0 
L 2575 419 
Q 2259 -75 1647 -75 
Q 1250 -75 917 144 
Q 584 363 401 755 
Q 219 1147 219 1656 
Q 219 2153 384 2558 
Q 550 2963 881 3178 
Q 1213 3394 1622 3394 
Q 1922 3394 2156 3267 
Q 2391 3141 2538 2938 
L 2538 4581 
L 3097 4581 
L 3097 0 
L 2575 0 
z
M 797 1656 
Q 797 1019 1065 703 
Q 1334 388 1700 388 
Q 2069 388 2326 689 
Q 2584 991 2584 1609 
Q 2584 2291 2321 2609 
Q 2059 2928 1675 2928 
Q 1300 2928 1048 2622 
Q 797 2316 797 1656 
z
" transform="scale(0.015625)"/>
      <path id="ArialMT-62" d="M 941 0 
L 419 0 
L 419 4581 
L 981 4581 
L 981 2947 
Q 1338 3394 1891 3394 
Q 2197 3394 2470 3270 
Q 2744 3147 2920 2923 
Q 3097 2700 3197 2384 
Q 3297 2069 3297 1709 
Q 3297 856 2875 390 
Q 2453 -75 1863 -75 
Q 1275 -75 941 416 
L 941 0 
z
M 934 1684 
Q 934 1088 1097 822 
Q 1363 388 1816 388 
Q 2184 388 2453 708 
Q 2722 1028 2722 1663 
Q 2722 2313 2464 2622 
Q 2206 2931 1841 2931 
Q 1472 2931 1203 2611 
Q 934 2291 934 1684 
z
" transform="scale(0.015625)"/>
      <path id="ArialMT-75" d="M 2597 0 
L 2597 488 
Q 2209 -75 1544 -75 
Q 1250 -75 995 37 
Q 741 150 617 320 
Q 494 491 444 738 
Q 409 903 409 1263 
L 409 3319 
L 972 3319 
L 972 1478 
Q 972 1038 1006 884 
Q 1059 663 1231 536 
Q 1403 409 1656 409 
Q 1909 409 2131 539 
Q 2353 669 2445 892 
Q 2538 1116 2538 1541 
L 2538 3319 
L 3100 3319 
L 3100 0 
L 2597 0 
z
" transform="scale(0.015625)"/>
     </defs>
     <use xlink:href="#ArialMT-53"/>
     <use xlink:href="#ArialMT-45" x="66.699219"/>
     <use xlink:href="#ArialMT-20" x="133.398438"/>
     <use xlink:href="#ArialMT-64" x="161.181641"/>
     <use xlink:href="#ArialMT-69" x="216.796875"/>
     <use xlink:href="#ArialMT-73" x="239.013672"/>
     <use xlink:href="#ArialMT-74" x="289.013672"/>
     <use xlink:href="#ArialMT-72" x="316.796875"/>
     <use xlink:href="#ArialMT-69" x="350.097656"/>
     <use xlink:href="#ArialMT-62" x="372.314453"/>
     <use xlink:href="#ArialMT-75" x="427.929688"/>
     <use xlink:href="#ArialMT-74" x="483.544922"/>
     <use xlink:href="#ArialMT-69" x="511.328125"/>
     <use xlink:href="#ArialMT-6f" x="533.544922"/>
     <use xlink:href="#ArialMT-6e" x="589.160156"/>
    </g>
    <!-- (p = 0.0087) -->
    <g transform="translate(135.903421 53.568) scale(0.12 -0.12)">
     <defs>
      <path id="ArialMT-28" d="M 1497 -1347 
Q 1031 -759 709 28 
Q 388 816 388 1659 
Q 388 2403 628 3084 
Q 909 3875 1497 4659 
L 1900 4659 
Q 1522 4009 1400 3731 
Q 1209 3300 1100 2831 
Q 966 2247 966 1656 
Q 966 153 1900 -1347 
L 1497 -1347 
z
" transform="scale(0.015625)"/>
      <path id="ArialMT-37" d="M 303 3981 
L 303 4522 
L 3269 4522 
L 3269 4084 
Q 2831 3619 2401 2847 
Q 1972 2075 1738 1259 
Q 1569 684 1522 0 
L 944 0 
Q 953 541 1156 1306 
Q 1359 2072 1739 2783 
Q 2119 3494 2547 3981 
L 303 3981 
z
" transform="scale(0.015625)"/>
      <path id="ArialMT-29" d="M 791 -1347 
L 388 -1347 
Q 1322 153 1322 1656 
Q 1322 2244 1188 2822 
Q 1081 3291 891 3722 
Q 769 4003 388 4659 
L 791 4659 
Q 1378 3875 1659 3084 
Q 1900 2403 1900 1659 
Q 1900 816 1576 28 
Q 1253 -759 791 -1347 
z
" transform="scale(0.015625)"/>
     </defs>
     <use xlink:href="#ArialMT-28"/>
     <use xlink:href="#ArialMT-70" x="33.300781"/>
     <use xlink:href="#ArialMT-20" x="88.916016"/>
     <use xlink:href="#ArialMT-3d" x="116.699219"/>
     <use xlink:href="#ArialMT-20" x="175.097656"/>
     <use xlink:href="#ArialMT-30" x="202.880859"/>
     <use xlink:href="#ArialMT-2e" x="258.496094"/>
     <use xlink:href="#ArialMT-30" x="286.279297"/>
     <use xlink:href="#ArialMT-30" x="341.894531"/>
     <use xlink:href="#ArialMT-38" x="397.509766"/>
     <use xlink:href="#ArialMT-37" x="453.125"/>
     <use xlink:href="#ArialMT-29" x="508.740234"/>
    </g>
   </g>
  </g>
  <g id="axes_3">
   <g id="patch_18">
    <path d="M 578.826316 246.04 
L 1069.2 246.04 
L 1069.2 59.568 
L 578.826316 59.568 
z
" style="fill: #ffffff"/>
   </g>
   <g id="PathCollection_3">
    <defs>
     <path id="C2_0_b3e2dbe2ae" d="M 0 1.581139 
C 0.419323 1.581139 0.821528 1.41454 1.118034 1.118034 
C 1.41454 0.821528 1.581139 0.419323 1.581139 -0 
C 1.581139 -0.419323 1.41454 -0.821528 1.118034 -1.118034 
C 0.821528 -1.41454 0.419323 -1.581139 0 -1.581139 
C -0.419323 -1.581139 -0.821528 -1.41454 -1.118034 -1.118034 
C -1.41454 -0.821528 -1.581139 -0.419323 -1.581139 0 
C -1.581139 0.419323 -1.41454 0.821528 -1.118034 1.118034 
C -0.821528 1.41454 -0.419323 1.581139 0 1.581139 
z
"/>
    </defs>
    <g clip-path="url(#p327cd5e1f9)">
     <use xlink:href="#C2_0_b3e2dbe2ae" x="601.116029" y="206.519229" style="fill: #c84940; stroke: #c84940"/>
    </g>
    <g clip-path="url(#p327cd5e1f9)">
     <use xlink:href="#C2_0_b3e2dbe2ae" x="609.221379" y="206.265396" style="fill: #c84940; stroke: #c84940"/>
    </g>
    <g clip-path="url(#p327cd5e1f9)">
     <use xlink:href="#C2_0_b3e2dbe2ae" x="617.326729" y="205.641846" style="fill: #3784bb; stroke: #3784bb"/>
    </g>
    <g clip-path="url(#p327cd5e1f9)">
     <use xlink:href="#C2_0_b3e2dbe2ae" x="625.432079" y="204.336592" style="fill: #c84940; stroke: #c84940"/>
    </g>
    <g clip-path="url(#p327cd5e1f9)">
     <use xlink:href="#C2_0_b3e2dbe2ae" x="633.537429" y="204.063995" style="fill: #3784bb; stroke: #3784bb"/>
    </g>
    <g clip-path="url(#p327cd5e1f9)">
     <use xlink:href="#C2_0_b3e2dbe2ae" x="641.642779" y="203.662551" style="fill: #c84940; stroke: #c84940"/>
    </g>
    <g clip-path="url(#p327cd5e1f9)">
     <use xlink:href="#C2_0_b3e2dbe2ae" x="649.74813" y="203.606636" style="fill: #3784bb; stroke: #3784bb"/>
    </g>
    <g clip-path="url(#p327cd5e1f9)">
     <use xlink:href="#C2_0_b3e2dbe2ae" x="657.85348" y="202.973257" style="fill: #3784bb; stroke: #3784bb"/>
    </g>
    <g clip-path="url(#p327cd5e1f9)">
     <use xlink:href="#C2_0_b3e2dbe2ae" x="665.95883" y="202.333505" style="fill: #c84940; stroke: #c84940"/>
    </g>
    <g clip-path="url(#p327cd5e1f9)">
     <use xlink:href="#C2_0_b3e2dbe2ae" x="674.06418" y="202.27472" style="fill: #c84940; stroke: #c84940"/>
    </g>
    <g clip-path="url(#p327cd5e1f9)">
     <use xlink:href="#C2_0_b3e2dbe2ae" x="682.16953" y="202.260237" style="fill: #c84940; stroke: #c84940"/>
    </g>
    <g clip-path="url(#p327cd5e1f9)">
     <use xlink:href="#C2_0_b3e2dbe2ae" x="690.27488" y="200.631089" style="fill: #c84940; stroke: #c84940"/>
    </g>
    <g clip-path="url(#p327cd5e1f9)">
     <use xlink:href="#C2_0_b3e2dbe2ae" x="698.380231" y="199.75303" style="fill: #c84940; stroke: #c84940"/>
    </g>
    <g clip-path="url(#p327cd5e1f9)">
     <use xlink:href="#C2_0_b3e2dbe2ae" x="706.485581" y="199.725353" style="fill: #c84940; stroke: #c84940"/>
    </g>
    <g clip-path="url(#p327cd5e1f9)">
     <use xlink:href="#C2_0_b3e2dbe2ae" x="714.590931" y="198.470017" style="fill: #c84940; stroke: #c84940"/>
    </g>
    <g clip-path="url(#p327cd5e1f9)">
     <use xlink:href="#C2_0_b3e2dbe2ae" x="722.696281" y="198.198869" style="fill: #c84940; stroke: #c84940"/>
    </g>
    <g clip-path="url(#p327cd5e1f9)">
     <use xlink:href="#C2_0_b3e2dbe2ae" x="730.801631" y="197.970029" style="fill: #c84940; stroke: #c84940"/>
    </g>
    <g clip-path="url(#p327cd5e1f9)">
     <use xlink:href="#C2_0_b3e2dbe2ae" x="738.906981" y="197.615733" style="fill: #c84940; stroke: #c84940"/>
    </g>
    <g clip-path="url(#p327cd5e1f9)">
     <use xlink:href="#C2_0_b3e2dbe2ae" x="747.012331" y="197.265043" style="fill: #c84940; stroke: #c84940"/>
    </g>
    <g clip-path="url(#p327cd5e1f9)">
     <use xlink:href="#C2_0_b3e2dbe2ae" x="755.117682" y="196.93023" style="fill: #3784bb; stroke: #3784bb"/>
    </g>
    <g clip-path="url(#p327cd5e1f9)">
     <use xlink:href="#C2_0_b3e2dbe2ae" x="763.223032" y="196.791035" style="fill: #c84940; stroke: #c84940"/>
    </g>
    <g clip-path="url(#p327cd5e1f9)">
     <use xlink:href="#C2_0_b3e2dbe2ae" x="771.328382" y="196.705277" style="fill: #c84940; stroke: #c84940"/>
    </g>
    <g clip-path="url(#p327cd5e1f9)">
     <use xlink:href="#C2_0_b3e2dbe2ae" x="779.433732" y="194.581917" style="fill: #3784bb; stroke: #3784bb"/>
    </g>
    <g clip-path="url(#p327cd5e1f9)">
     <use xlink:href="#C2_0_b3e2dbe2ae" x="787.539082" y="194.543435" style="fill: #c84940; stroke: #c84940"/>
    </g>
    <g clip-path="url(#p327cd5e1f9)">
     <use xlink:href="#C2_0_b3e2dbe2ae" x="795.644432" y="194.004355" style="fill: #c84940; stroke: #c84940"/>
    </g>
    <g clip-path="url(#p327cd5e1f9)">
     <use xlink:href="#C2_0_b3e2dbe2ae" x="803.749783" y="193.436045" style="fill: #c84940; stroke: #c84940"/>
    </g>
    <g clip-path="url(#p327cd5e1f9)">
     <use xlink:href="#C2_0_b3e2dbe2ae" x="811.855133" y="191.915765" style="fill: #3784bb; stroke: #3784bb"/>
    </g>
    <g clip-path="url(#p327cd5e1f9)">
     <use xlink:href="#C2_0_b3e2dbe2ae" x="819.960483" y="187.87822" style="fill: #c84940; stroke: #c84940"/>
    </g>
    <g clip-path="url(#p327cd5e1f9)">
     <use xlink:href="#C2_0_b3e2dbe2ae" x="828.065833" y="187.647555" style="fill: #3784bb; stroke: #3784bb"/>
    </g>
    <g clip-path="url(#p327cd5e1f9)">
     <use xlink:href="#C2_0_b3e2dbe2ae" x="836.171183" y="187.176947" style="fill: #3784bb; stroke: #3784bb"/>
    </g>
    <g clip-path="url(#p327cd5e1f9)">
     <use xlink:href="#C2_0_b3e2dbe2ae" x="844.276533" y="186.003942" style="fill: #3784bb; stroke: #3784bb"/>
    </g>
    <g clip-path="url(#p327cd5e1f9)">
     <use xlink:href="#C2_0_b3e2dbe2ae" x="852.381883" y="185.9996" style="fill: #3784bb; stroke: #3784bb"/>
    </g>
    <g clip-path="url(#p327cd5e1f9)">
     <use xlink:href="#C2_0_b3e2dbe2ae" x="860.487234" y="181.522853" style="fill: #3784bb; stroke: #3784bb"/>
    </g>
    <g clip-path="url(#p327cd5e1f9)">
     <use xlink:href="#C2_0_b3e2dbe2ae" x="868.592584" y="179.802492" style="fill: #3784bb; stroke: #3784bb"/>
    </g>
    <g clip-path="url(#p327cd5e1f9)">
     <use xlink:href="#C2_0_b3e2dbe2ae" x="876.697934" y="179.531201" style="fill: #3784bb; stroke: #3784bb"/>
    </g>
    <g clip-path="url(#p327cd5e1f9)">
     <use xlink:href="#C2_0_b3e2dbe2ae" x="884.803284" y="174.60626" style="fill: #3784bb; stroke: #3784bb"/>
    </g>
    <g clip-path="url(#p327cd5e1f9)">
     <use xlink:href="#C2_0_b3e2dbe2ae" x="892.908634" y="174.524539" style="fill: #3784bb; stroke: #3784bb"/>
    </g>
    <g clip-path="url(#p327cd5e1f9)">
     <use xlink:href="#C2_0_b3e2dbe2ae" x="901.013984" y="173.380204" style="fill: #3784bb; stroke: #3784bb"/>
    </g>
    <g clip-path="url(#p327cd5e1f9)">
     <use xlink:href="#C2_0_b3e2dbe2ae" x="909.119334" y="172.651834" style="fill: #c84940; stroke: #c84940"/>
    </g>
    <g clip-path="url(#p327cd5e1f9)">
     <use xlink:href="#C2_0_b3e2dbe2ae" x="917.224685" y="171.704736" style="fill: #3784bb; stroke: #3784bb"/>
    </g>
    <g clip-path="url(#p327cd5e1f9)">
     <use xlink:href="#C2_0_b3e2dbe2ae" x="925.330035" y="170.427397" style="fill: #3784bb; stroke: #3784bb"/>
    </g>
    <g clip-path="url(#p327cd5e1f9)">
     <use xlink:href="#C2_0_b3e2dbe2ae" x="933.435385" y="170.307862" style="fill: #3784bb; stroke: #3784bb"/>
    </g>
    <g clip-path="url(#p327cd5e1f9)">
     <use xlink:href="#C2_0_b3e2dbe2ae" x="941.540735" y="166.333789" style="fill: #3784bb; stroke: #3784bb"/>
    </g>
    <g clip-path="url(#p327cd5e1f9)">
     <use xlink:href="#C2_0_b3e2dbe2ae" x="949.646085" y="162.683961" style="fill: #3784bb; stroke: #3784bb"/>
    </g>
    <g clip-path="url(#p327cd5e1f9)">
     <use xlink:href="#C2_0_b3e2dbe2ae" x="957.751435" y="160.978029" style="fill: #c84940; stroke: #c84940"/>
    </g>
    <g clip-path="url(#p327cd5e1f9)">
     <use xlink:href="#C2_0_b3e2dbe2ae" x="965.856786" y="159.712721" style="fill: #c84940; stroke: #c84940"/>
    </g>
    <g clip-path="url(#p327cd5e1f9)">
     <use xlink:href="#C2_0_b3e2dbe2ae" x="973.962136" y="157.924728" style="fill: #3784bb; stroke: #3784bb"/>
    </g>
    <g clip-path="url(#p327cd5e1f9)">
     <use xlink:href="#C2_0_b3e2dbe2ae" x="982.067486" y="156.762389" style="fill: #c84940; stroke: #c84940"/>
    </g>
    <g clip-path="url(#p327cd5e1f9)">
     <use xlink:href="#C2_0_b3e2dbe2ae" x="990.172836" y="154.493022" style="fill: #3784bb; stroke: #3784bb"/>
    </g>
    <g clip-path="url(#p327cd5e1f9)">
     <use xlink:href="#C2_0_b3e2dbe2ae" x="998.278186" y="146.303638" style="fill: #c84940; stroke: #c84940"/>
    </g>
    <g clip-path="url(#p327cd5e1f9)">
     <use xlink:href="#C2_0_b3e2dbe2ae" x="1006.383536" y="144.530137" style="fill: #3784bb; stroke: #3784bb"/>
    </g>
    <g clip-path="url(#p327cd5e1f9)">
     <use xlink:href="#C2_0_b3e2dbe2ae" x="1014.488886" y="135.681658" style="fill: #3784bb; stroke: #3784bb"/>
    </g>
    <g clip-path="url(#p327cd5e1f9)">
     <use xlink:href="#C2_0_b3e2dbe2ae" x="1022.594237" y="121.394271" style="fill: #c84940; stroke: #c84940"/>
    </g>
    <g clip-path="url(#p327cd5e1f9)">
     <use xlink:href="#C2_0_b3e2dbe2ae" x="1030.699587" y="117.70048" style="fill: #3784bb; stroke: #3784bb"/>
    </g>
    <g clip-path="url(#p327cd5e1f9)">
     <use xlink:href="#C2_0_b3e2dbe2ae" x="1038.804937" y="110.750186" style="fill: #3784bb; stroke: #3784bb"/>
    </g>
    <g clip-path="url(#p327cd5e1f9)">
     <use xlink:href="#C2_0_b3e2dbe2ae" x="1046.910287" y="96.675018" style="fill: #3784bb; stroke: #3784bb"/>
    </g>
   </g>
   <g id="matplotlib.axis_5">
    <g id="xtick_5">
     <g id="line2d_26">
      <g>
       <use xlink:href="#mfa6bc80bcc" x="593.010679" y="246.04" style="stroke: #000000; stroke-width: 0.8"/>
      </g>
     </g>
     <g id="text_26">
      <!-- 0 -->
      <g transform="translate(590.23021 260.197812) scale(0.1 -0.1)">
       <use xlink:href="#ArialMT-30"/>
      </g>
     </g>
    </g>
    <g id="xtick_6">
     <g id="line2d_27">
      <g>
       <use xlink:href="#mfa6bc80bcc" x="674.06418" y="246.04" style="stroke: #000000; stroke-width: 0.8"/>
      </g>
     </g>
     <g id="text_27">
      <!-- 10 -->
      <g transform="translate(668.503243 260.197812) scale(0.1 -0.1)">
       <use xlink:href="#ArialMT-31"/>
       <use xlink:href="#ArialMT-30" x="55.615234"/>
      </g>
     </g>
    </g>
    <g id="xtick_7">
     <g id="line2d_28">
      <g>
       <use xlink:href="#mfa6bc80bcc" x="755.117682" y="246.04" style="stroke: #000000; stroke-width: 0.8"/>
      </g>
     </g>
     <g id="text_28">
      <!-- 20 -->
      <g transform="translate(749.556744 260.197812) scale(0.1 -0.1)">
       <use xlink:href="#ArialMT-32"/>
       <use xlink:href="#ArialMT-30" x="55.615234"/>
      </g>
     </g>
    </g>
    <g id="xtick_8">
     <g id="line2d_29">
      <g>
       <use xlink:href="#mfa6bc80bcc" x="836.171183" y="246.04" style="stroke: #000000; stroke-width: 0.8"/>
      </g>
     </g>
     <g id="text_29">
      <!-- 30 -->
      <g transform="translate(830.610246 260.197812) scale(0.1 -0.1)">
       <use xlink:href="#ArialMT-33"/>
       <use xlink:href="#ArialMT-30" x="55.615234"/>
      </g>
     </g>
    </g>
    <g id="xtick_9">
     <g id="line2d_30">
      <g>
       <use xlink:href="#mfa6bc80bcc" x="917.224685" y="246.04" style="stroke: #000000; stroke-width: 0.8"/>
      </g>
     </g>
     <g id="text_30">
      <!-- 40 -->
      <g transform="translate(911.663747 260.197812) scale(0.1 -0.1)">
       <use xlink:href="#ArialMT-34"/>
       <use xlink:href="#ArialMT-30" x="55.615234"/>
      </g>
     </g>
    </g>
    <g id="xtick_10">
     <g id="line2d_31">
      <g>
       <use xlink:href="#mfa6bc80bcc" x="998.278186" y="246.04" style="stroke: #000000; stroke-width: 0.8"/>
      </g>
     </g>
     <g id="text_31">
      <!-- 50 -->
      <g transform="translate(992.717249 260.197812) scale(0.1 -0.1)">
       <use xlink:href="#ArialMT-35"/>
       <use xlink:href="#ArialMT-30" x="55.615234"/>
      </g>
     </g>
    </g>
    <g id="text_32">
     <!-- Samples -->
     <g transform="translate(804.560814 273.465) scale(0.1 -0.1)">
      <use xlink:href="#ArialMT-53"/>
      <use xlink:href="#ArialMT-61" x="66.699219"/>
      <use xlink:href="#ArialMT-6d" x="122.314453"/>
      <use xlink:href="#ArialMT-70" x="205.615234"/>
      <use xlink:href="#ArialMT-6c" x="261.230469"/>
      <use xlink:href="#ArialMT-65" x="283.447266"/>
      <use xlink:href="#ArialMT-73" x="339.0625"/>
     </g>
    </g>
   </g>
   <g id="matplotlib.axis_6">
    <g id="ytick_12">
     <g id="line2d_32">
      <g>
       <use xlink:href="#m00049246f1" x="578.826316" y="208.932982" style="stroke: #000000; stroke-width: 0.8"/>
      </g>
     </g>
    </g>
    <g id="ytick_13">
     <g id="line2d_33">
      <g>
       <use xlink:href="#m00049246f1" x="578.826316" y="171.329829" style="stroke: #000000; stroke-width: 0.8"/>
      </g>
     </g>
    </g>
    <g id="ytick_14">
     <g id="line2d_34">
      <g>
       <use xlink:href="#m00049246f1" x="578.826316" y="133.726676" style="stroke: #000000; stroke-width: 0.8"/>
      </g>
     </g>
    </g>
    <g id="ytick_15">
     <g id="line2d_35">
      <g>
       <use xlink:href="#m00049246f1" x="578.826316" y="96.123522" style="stroke: #000000; stroke-width: 0.8"/>
      </g>
     </g>
    </g>
    <g id="text_33">
     <!-- SE -->
     <g transform="translate(565.838816 159.474312) rotate(-90) scale(0.1 -0.1)">
      <use xlink:href="#ArialMT-53"/>
      <use xlink:href="#ArialMT-45" x="66.699219"/>
     </g>
    </g>
   </g>
   <g id="patch_19">
    <path d="M 578.826316 246.04 
L 578.826316 59.568 
" style="fill: none; stroke: #000000; stroke-width: 0.8; stroke-linejoin: miter; stroke-linecap: square"/>
   </g>
   <g id="patch_20">
    <path d="M 1069.2 246.04 
L 1069.2 59.568 
" style="fill: none; stroke: #000000; stroke-width: 0.8; stroke-linejoin: miter; stroke-linecap: square"/>
   </g>
   <g id="patch_21">
    <path d="M 578.826316 246.04 
L 1069.2 246.04 
" style="fill: none; stroke: #000000; stroke-width: 0.8; stroke-linejoin: miter; stroke-linecap: square"/>
   </g>
   <g id="patch_22">
    <path d="M 578.826316 59.568 
L 1069.2 59.568 
" style="fill: none; stroke: #000000; stroke-width: 0.8; stroke-linejoin: miter; stroke-linecap: square"/>
   </g>
   <g id="text_34">
    <!-- Excluding SE = 0 -->
    <g transform="translate(778.152533 53.568) scale(0.12 -0.12)">
     <defs>
      <path id="ArialMT-78" d="M 47 0 
L 1259 1725 
L 138 3319 
L 841 3319 
L 1350 2541 
Q 1494 2319 1581 2169 
Q 1719 2375 1834 2534 
L 2394 3319 
L 3066 3319 
L 1919 1756 
L 3153 0 
L 2463 0 
L 1781 1031 
L 1600 1309 
L 728 0 
L 47 0 
z
" transform="scale(0.015625)"/>
      <path id="ArialMT-63" d="M 2588 1216 
L 3141 1144 
Q 3050 572 2676 248 
Q 2303 -75 1759 -75 
Q 1078 -75 664 370 
Q 250 816 250 1647 
Q 250 2184 428 2587 
Q 606 2991 970 3192 
Q 1334 3394 1763 3394 
Q 2303 3394 2647 3120 
Q 2991 2847 3088 2344 
L 2541 2259 
Q 2463 2594 2264 2762 
Q 2066 2931 1784 2931 
Q 1359 2931 1093 2626 
Q 828 2322 828 1663 
Q 828 994 1084 691 
Q 1341 388 1753 388 
Q 2084 388 2306 591 
Q 2528 794 2588 1216 
z
" transform="scale(0.015625)"/>
      <path id="ArialMT-67" d="M 319 -275 
L 866 -356 
Q 900 -609 1056 -725 
Q 1266 -881 1628 -881 
Q 2019 -881 2231 -725 
Q 2444 -569 2519 -288 
Q 2563 -116 2559 434 
Q 2191 0 1641 0 
Q 956 0 581 494 
Q 206 988 206 1678 
Q 206 2153 378 2554 
Q 550 2956 876 3175 
Q 1203 3394 1644 3394 
Q 2231 3394 2613 2919 
L 2613 3319 
L 3131 3319 
L 3131 450 
Q 3131 -325 2973 -648 
Q 2816 -972 2473 -1159 
Q 2131 -1347 1631 -1347 
Q 1038 -1347 672 -1080 
Q 306 -813 319 -275 
z
M 784 1719 
Q 784 1066 1043 766 
Q 1303 466 1694 466 
Q 2081 466 2343 764 
Q 2606 1063 2606 1700 
Q 2606 2309 2336 2618 
Q 2066 2928 1684 2928 
Q 1309 2928 1046 2623 
Q 784 2319 784 1719 
z
" transform="scale(0.015625)"/>
     </defs>
     <use xlink:href="#ArialMT-45"/>
     <use xlink:href="#ArialMT-78" x="66.699219"/>
     <use xlink:href="#ArialMT-63" x="116.699219"/>
     <use xlink:href="#ArialMT-6c" x="166.699219"/>
     <use xlink:href="#ArialMT-75" x="188.916016"/>
     <use xlink:href="#ArialMT-64" x="244.53125"/>
     <use xlink:href="#ArialMT-69" x="300.146484"/>
     <use xlink:href="#ArialMT-6e" x="322.363281"/>
     <use xlink:href="#ArialMT-67" x="377.978516"/>
     <use xlink:href="#ArialMT-20" x="433.59375"/>
     <use xlink:href="#ArialMT-53" x="461.376953"/>
     <use xlink:href="#ArialMT-45" x="528.076172"/>
     <use xlink:href="#ArialMT-20" x="594.775391"/>
     <use xlink:href="#ArialMT-3d" x="622.558594"/>
     <use xlink:href="#ArialMT-20" x="680.957031"/>
     <use xlink:href="#ArialMT-30" x="708.740234"/>
    </g>
   </g>
  </g>
  <g id="text_35">
   <!-- SE distribution at cluster S1-C20  in cohort CRC2 -->
   <g transform="translate(408.949687 14.349375) scale(0.12 -0.12)">
    <defs>
     <path id="ArialMT-2d" d="M 203 1375 
L 203 1941 
L 1931 1941 
L 1931 1375 
L 203 1375 
z
" transform="scale(0.015625)"/>
    </defs>
    <use xlink:href="#ArialMT-53"/>
    <use xlink:href="#ArialMT-45" x="66.699219"/>
    <use xlink:href="#ArialMT-20" x="133.398438"/>
    <use xlink:href="#ArialMT-64" x="161.181641"/>
    <use xlink:href="#ArialMT-69" x="216.796875"/>
    <use xlink:href="#ArialMT-73" x="239.013672"/>
    <use xlink:href="#ArialMT-74" x="289.013672"/>
    <use xlink:href="#ArialMT-72" x="316.796875"/>
    <use xlink:href="#ArialMT-69" x="350.097656"/>
    <use xlink:href="#ArialMT-62" x="372.314453"/>
    <use xlink:href="#ArialMT-75" x="427.929688"/>
    <use xlink:href="#ArialMT-74" x="483.544922"/>
    <use xlink:href="#ArialMT-69" x="511.328125"/>
    <use xlink:href="#ArialMT-6f" x="533.544922"/>
    <use xlink:href="#ArialMT-6e" x="589.160156"/>
    <use xlink:href="#ArialMT-20" x="644.775391"/>
    <use xlink:href="#ArialMT-61" x="672.558594"/>
    <use xlink:href="#ArialMT-74" x="728.173828"/>
    <use xlink:href="#ArialMT-20" x="755.957031"/>
    <use xlink:href="#ArialMT-63" x="783.740234"/>
    <use xlink:href="#ArialMT-6c" x="833.740234"/>
    <use xlink:href="#ArialMT-75" x="855.957031"/>
    <use xlink:href="#ArialMT-73" x="911.572266"/>
    <use xlink:href="#ArialMT-74" x="961.572266"/>
    <use xlink:href="#ArialMT-65" x="989.355469"/>
    <use xlink:href="#ArialMT-72" x="1044.970703"/>
    <use xlink:href="#ArialMT-20" x="1078.271484"/>
    <use xlink:href="#ArialMT-53" x="1106.054688"/>
    <use xlink:href="#ArialMT-31" x="1172.753906"/>
    <use xlink:href="#ArialMT-2d" x="1228.369141"/>
    <use xlink:href="#ArialMT-43" x="1261.669922"/>
    <use xlink:href="#ArialMT-32" x="1333.886719"/>
    <use xlink:href="#ArialMT-30" x="1389.501953"/>
    <use xlink:href="#ArialMT-20" x="1445.117188"/>
    <use xlink:href="#ArialMT-20" x="1472.900391"/>
    <use xlink:href="#ArialMT-69" x="1500.683594"/>
    <use xlink:href="#ArialMT-6e" x="1522.900391"/>
    <use xlink:href="#ArialMT-20" x="1578.515625"/>
    <use xlink:href="#ArialMT-63" x="1606.298828"/>
    <use xlink:href="#ArialMT-6f" x="1656.298828"/>
    <use xlink:href="#ArialMT-68" x="1711.914062"/>
    <use xlink:href="#ArialMT-6f" x="1767.529297"/>
    <use xlink:href="#ArialMT-72" x="1823.144531"/>
    <use xlink:href="#ArialMT-74" x="1856.445312"/>
    <use xlink:href="#ArialMT-20" x="1884.228516"/>
    <use xlink:href="#ArialMT-43" x="1912.011719"/>
    <use xlink:href="#ArialMT-52" x="1984.228516"/>
    <use xlink:href="#ArialMT-43" x="2056.445312"/>
    <use xlink:href="#ArialMT-32" x="2128.662109"/>
   </g>
  </g>
 </g>
 <defs>
  <clipPath id="pdb8d74d26c">
   <rect x="336.846842" y="59.568" width="196.149474" height="186.472"/>
  </clipPath>
  <clipPath id="p299f0d66c0">
   <rect x="58.089342" y="99.964554" width="49.037368" height="130.398145"/>
  </clipPath>
  <clipPath id="pec302b8a78">
   <rect x="180.682763" y="68.044" width="49.037368" height="169.52"/>
  </clipPath>
  <clipPath id="p4b3fa10908">
   <rect x="45.83" y="59.568" width="245.186842" height="186.472"/>
  </clipPath>
  <clipPath id="p327cd5e1f9">
   <rect x="578.826316" y="59.568" width="490.373684" height="186.472"/>
  </clipPath>
 </defs>
</svg>
